<?xml version="1.0" encoding="UTF-8"?>
<!DOCTYPE svg PUBLIC "-//W3C//DTD SVG 1.1//EN" "http://www.w3.org/Graphics/SVG/1.1/DTD/svg11.dtd">
<!-- Creator: CorelDRAW X8 -->
<svg xmlns="http://www.w3.org/2000/svg" xml:space="preserve" width="155.173mm" height="66.877mm" version="1.1" style="shape-rendering:geometricPrecision; text-rendering:geometricPrecision; image-rendering:optimizeQuality; fill-rule:evenodd; clip-rule:evenodd"
viewBox="0 0 15549 6701"
 xmlns:xlink="http://www.w3.org/1999/xlink">
 <defs>
  <style type="text/css">
   <![CDATA[
    .str0 {stroke:white;stroke-width:84.8415}
    .fil0 {fill:black}
    .fil1 {fill:black;fill-rule:nonzero}
    .fil2 {fill:white;fill-rule:nonzero}
   ]]>
  </style>
 </defs>
 <g id="Слой_x0020_1">
  <metadata id="CorelCorpID_0Corel-Layer"/>
  <path class="fil0" d="M7496 0c1851,0 3351,1500 3351,3351 0,1850 -1500,3350 -3351,3350 -1850,0 -3350,-1500 -3350,-3350 0,-1851 1500,-3351 3350,-3351z"/>
  <path class="fil1" d="M0 5608l2311 0c1069,-1 1697,-468 1697,-1236 0,-621 -346,-928 -890,-1108 397,-173 691,-480 691,-998 0,-321 -108,-557 -288,-737 -262,-262 -659,-403 -1223,-403l-2298 0 0 4482zm1210 -999l0 -826 948 0c416,0 608,160 608,403 0,276 -218,423 -596,423l-960 0zm0 -1697l0 -787 807 0c371,0 563,141 563,384 0,275 -211,403 -589,403l-781 0z"/>
  <path class="fil2 str0" d="M7550 5606c784,0 1420,-290 1877,-666l0 -1945 -1160 1 -733 876 757 0 0 525c-179,117 -401,179 -691,179 -685,0 -1173,-500 -1173,-1198 0,-673 481,-1197 1105,-1197 426,0 734,148 1043,407l703 -845c-456,-395 -993,-630 -1753,-630 -1339,0 -2326,988 -2326,2247 0,1321 1006,2246 2351,2246z"/>
  <path class="fil1" d="M10536 5607l1306 0 320 -800 1729 0 326 800 1332 0 -1908 -4513 -1197 0 -1908 4513zm1991 -1767l506 -1274 499 1274 -1005 0z"/>
  <path class="fil0" d="M5981 2016c54,-154 223,-235 377,-180 155,54 235,223 181,377 -54,154 -223,235 -377,181 -154,-55 -235,-224 -181,-378z"/>
  <path class="fil0" d="M7217 1587c54,-154 223,-235 377,-180 155,54 235,223 181,377 -54,154 -223,235 -377,181 -154,-55 -235,-224 -181,-378z"/>
  <path class="fil0" d="M5968 4501c54,-154 223,-235 377,-180 155,54 235,223 181,377 -54,154 -223,235 -377,181 -154,-55 -235,-224 -181,-378z"/>
  <path class="fil0" d="M5535 3252c54,-154 223,-235 377,-180 154,54 235,223 181,377 -55,154 -223,235 -378,181 -154,-55 -235,-224 -180,-378z"/>
  <path class="fil0" d="M7217 4995c55,-154 223,-235 378,-180 154,54 234,223 180,377 -54,154 -223,235 -377,181 -154,-55 -235,-224 -181,-378z"/>
 </g>
</svg>
