<?xml version="1.0" encoding="UTF-8"?>
<!DOCTYPE svg PUBLIC "-//W3C//DTD SVG 1.1//EN" "http://www.w3.org/Graphics/SVG/1.1/DTD/svg11.dtd">
<!-- Creator: CorelDRAW 2020 (64-Bit) -->
<svg xmlns="http://www.w3.org/2000/svg" xml:space="preserve" width="523.109mm" height="150.066mm" version="1.1" style="shape-rendering:geometricPrecision; text-rendering:geometricPrecision; image-rendering:optimizeQuality; fill-rule:evenodd; clip-rule:evenodd"
viewBox="0 0 13192.72 3784.65"
 xmlns:xlink="http://www.w3.org/1999/xlink"
 xmlns:xodm="http://www.corel.com/coreldraw/odm/2003">
 <defs>
  <style type="text/css">
   <![CDATA[
    .fil0 {fill:white}
   ]]>
  </style>
 </defs>
 <g id="Слой_x0020_1">
  <metadata id="CorelCorpID_0Corel-Layer"/>
  <g id="_2365028726176">
   <path class="fil0" d="M3078.8 3259.91l34.53 -244.66c2.12,-9.25 2.12,-11.04 6.48,-19.52 22.89,-44.56 73.86,9.76 254.33,-73.72 32.02,-14.81 2.28,-10.63 45.08,-10.44 15.51,32.45 53.31,74.61 76.43,107.93 18.31,26.39 63.13,86.83 74.05,116.15 -28.51,29.52 -63.58,37.51 -100.65,55.38 -107.45,51.78 -276.43,81.8 -390.24,68.88zm-540.12 -273.88c16.5,-28.12 19.1,-23.2 52.47,-47.98l161.17 -123.26c51.89,21.24 132.06,125.65 268.56,146.85l-41.41 282.16c-97.99,-36.01 -161.53,-42.16 -255.44,-101.11 -47.84,-30.03 -103.18,-67.74 -142.85,-104.94l-36.47 -40.78c-1,-1.61 -2.22,-4.03 -3.02,-5.39 -0.82,-1.39 -2.16,-3.63 -3.01,-5.57zm-204.42 -589.27l283.92 41.2c-10.4,75.99 27.03,225.16 77.05,280.89 -13.07,36.67 12.43,5.05 -51.2,53.08l-135.06 110.23c-25.96,20.48 -13.26,14.21 -45.53,18.34l-56.19 -105.56c-53.89,-109.6 -90.32,-277.03 -72.98,-398.19zm1337.68 678.27c-37.89,-18.9 -66.49,-72.82 -91.93,-107.14 -17.07,-23.03 -26.31,-28.71 -41.26,-51.25 -14.74,-22.22 -28.41,-40.2 -44.8,-54.98 13.38,-45.85 37.18,-45.07 93.89,-124.76 22.38,-31.45 58.07,-105 67.13,-148.48l282 41.09c-11.2,87.28 -65.15,181.99 -110.78,259.04 -6.93,11.7 -10.75,19.7 -15.19,26.37l-97.98 113.73c-12.47,12.46 -31.77,29.36 -41.08,46.38zm-568.79 -169c-211.96,-30.76 -334.06,-135.64 -397.65,-311.38 -57.52,-158.96 -8.26,-363.04 109.41,-475.93 202.94,-194.7 505.41,-168.85 661.16,1.62 74.12,81.12 113.64,165.68 123.47,280.41 8.49,99.1 -15.21,214.81 -59.12,284.56l-33.81 49.72c-83.42,114.42 -256.8,192.28 -403.45,171zm506.56 -734.06c22.55,-9.82 81.7,-58.7 106.46,-77.27l116.37 -79.62 62.03 106.98c44.56,103.82 77.62,290.96 55.17,401.23 -33.33,6.11 -239.07,-21.28 -274.13,-35.23 -4.64,-26.45 -0.75,-61.28 -2.93,-87.06 -1.44,-16.98 -7.13,-54.55 -12.93,-77.18 -5.27,-20.57 -13.26,-49.93 -22.29,-70.61 -26.64,-60.96 -17.45,-18.51 -27.74,-81.24zm-1261.07 125.67c1.85,-129.73 113.03,-316.51 206.22,-416.42 14.46,-15.51 30.46,-25.75 42.98,-46.3 37.9,23.84 152.91,170.41 175.9,227.77l-20.97 26.86c-47.45,56.3 -90.23,115.25 -112.59,190.35 -21.59,72.51 -2.03,58.53 -119.99,43.37 -53.49,-6.87 -127.27,-8.1 -171.56,-25.63zm963.97 -648.93c103.98,15.09 196.32,63.64 270.35,107.89 97.55,58.3 120.84,99.16 189.49,161.12 -13.29,24.12 -34.78,40.37 -57.7,56.84 -11.82,8.49 -16.75,7.7 -29.09,16.17l-127.68 103.85c-33.86,-10.87 -22.59,-3.63 -40.76,-27.27 -43.44,-56.53 -175.9,-124.19 -245.83,-134.71l41.2 -283.88zm-618.38 125.99c21.15,-36.03 70.42,-53.95 107.39,-70.63 118.46,-53.44 270.2,-90.3 411.87,-69.75l-39.28 270.71 -48.97 9.14c-180.84,4.6 -207.18,79.38 -280.49,77.87l-116.66 -160.2c-24.33,-32.24 -26.21,-26.28 -33.85,-57.15zm1617.99 524.74c1.83,-164.8 -85.38,-85.04 -142.62,-96.81 -87.19,-17.93 -96.47,-142.39 -16.3,-171.4 22.04,-7.97 43.49,-9.29 58.33,-28.93 19.66,-26.03 -1.66,-59.55 -13.25,-86.26l-23.25 -25.74c-28.43,-12.49 -41.53,2.76 -59.7,13.45 -19.15,11.28 -40.96,24.22 -73.67,18.94 -33.64,-5.42 -47.54,-23.97 -66.27,-36.25 -24.51,-16.08 -43.68,-20.37 -38.98,-59.51 8.7,-72.38 150.98,-66.51 101.09,-154.27 -70.97,-124.83 -102.64,-5.64 -156.17,13.3 -101.08,35.78 -162.1,-73.96 -100.07,-148.68 33.89,-40.82 37.82,-74.32 -20.03,-106.12 -79.61,-43.77 -84.08,13.79 -107.54,57.69 -23.1,43.23 -90.79,54.31 -134.97,18.28 -92.64,-75.57 105.83,-206.14 -126.53,-209.12 -22.52,75.99 -40.92,160.11 -124.32,148.42 -117.09,-16.42 -49.59,-127.73 -85.48,-165.84 -18.6,-19.74 -67.45,-21.07 -96.59,-11.32 -37.39,12.51 -30.04,46.25 -29.37,86.15 1.47,87.81 -98.7,119.95 -150.99,74.1 -38.2,-33.5 -14.92,-58.4 -32.77,-95.33 -14.83,-30.67 -46.49,-27.19 -79.99,-17.96 -113.59,31.29 -17.99,93.38 -36.16,164.43 -20.07,78.49 -123.57,83.51 -162.67,20.93 -10.87,-17.4 -6.24,-28.06 -20,-43.88 -37.6,-43.28 -85.46,8.39 -121.05,29.62 -7.93,34.71 -7.19,51.79 14.76,73.73 52.4,52.37 36.79,159.55 -55.19,154.85 -47.29,-2.41 -55.59,-20.55 -77.08,-44.53 -59.2,-66.03 -166.83,66.49 -98.55,107.98 21.72,13.2 21.22,6.11 39.37,23.6 45.03,43.39 21.56,140.1 -42.54,153.21 -59.18,12.1 -90.15,-52.08 -136.95,-26.08 -6.22,3.46 -20.06,19.9 -25.65,31.02 -73.97,147.32 126.38,66.17 107.48,204.19 -14.84,108.4 -137.06,69.04 -164.84,70.28 -22.29,30.47 -29.15,3.13 -37.64,68.74 -12.7,98.25 71.31,53.82 126.68,86.44 36.72,21.63 50.83,81.06 23.23,120.47 -30.51,43.57 -57.14,36.33 -104.51,45 -62.82,11.5 -45.82,110.63 -21.65,130.76 41.92,34.91 86.18,-31.54 159.47,16.35 24.33,15.9 34.47,39.24 31.21,77.34 -7.92,92.66 -83.06,56.99 -115.78,103.98 -9.26,13.31 -13.23,23.06 -8.26,41.44 0.68,2.54 35.43,75.85 69.56,75.81 51.46,-0.06 78.03,-70.03 154.16,-19.8l60.51 44.11c1.41,27.07 1.91,33.55 -3.1,66.91 -22.12,10.73 -32.58,24.2 -54.97,36.7 -57.13,31.91 -70.51,45.42 -24.93,99.66 81.31,96.75 77.47,-22.76 166.84,-31.58 66.3,-6.54 104.49,41.05 99.06,97.2 -5.47,56.55 -87.49,100.89 -31.6,141.02 110,78.97 97.24,-4.48 146.35,-50.51 1.48,-1.39 9.45,-8.33 11.06,-9.51 55,-40.21 131.92,6.85 138.56,59.76 6.22,49.58 -42.72,92.88 -8.34,127.45 22.89,23.02 100.09,44.1 120.64,2.37 23.3,-47.33 -1.71,-88.11 64.11,-115.38 42.72,-17.7 103.97,2.07 119.7,47.09 13.62,38.96 -35.5,163.05 103.19,124.65 23.73,-6.57 34.41,-15.57 38.33,-41.65 6.36,-42.29 -21.81,-99.43 37.34,-131.82 47.47,-25.99 108.41,-5.11 128.48,36.45 6.7,13.87 5.52,16.51 8.75,36.46 10.94,67.4 58.51,66.23 116.32,37.09 66.54,-33.55 -31.39,-104.65 20.92,-181.94 24.23,-35.79 86.76,-47.08 134.46,-8.69 27.11,21.82 26.44,86.94 78.58,76.31 12.77,-2.6 39.86,-22.54 51.39,-31.35 77.12,-58.92 -38.95,-82.85 -22.46,-171.31 10.31,-55.34 54.91,-83 111.18,-68.86 60.54,15.22 60.93,78.72 111.37,58.64 36.22,-14.42 72.41,-62.5 56.87,-100.15 -21.19,-51.32 -122.12,-33.31 -65.19,-169.24 45.08,-107.62 122.13,7.74 183.63,0.34 13.49,-18.44 22.19,-13.63 35.95,-42.75 9.7,-20.52 17.69,-48.39 8.25,-67.91 -16.96,-35.03 -87.55,-28.61 -110.23,-69.66 -24.21,-43.8 -7,-101.03 32.81,-125.23 8.12,-4.94 9.4,-6.19 17.67,-9.22 32.57,-11.92 81.14,16.53 111.12,0.53 40.28,-21.5 42.74,-100.73 17.57,-122.88 -35.36,-31.12 -102.54,4.54 -138.96,-50.24 -27.05,-40.67 -6.22,-114.38 34.46,-133.36 57.44,-26.8 63.4,20.87 116.3,-42.2z"/>
   <path class="fil0" d="M1079.46 1843.81c29.3,16.96 11.4,-20.94 34.97,69.5 12.61,48.37 52.77,179.5 48.3,212.25 -82.8,34 -149.37,-8.53 -222.56,-18.85 8.15,-50.73 108.55,-214.11 139.29,-262.91zm-180.79 223.17c-43.17,-8.7 -68.02,-35.69 -97.97,-73.83 -19.45,-24.76 -44.04,-71.24 -50.97,-102.83l35.82 -17.61c9.35,-2.99 23.35,-5.38 34.66,-8.44l170.71 -46.69c21.16,-5.1 22.75,-4.48 46.09,-6.91 -8.91,44.86 -113.66,212.37 -138.34,256.31zm244.06 -240.97c50.16,14.12 92.61,44.58 134.53,68.45 32.47,18.49 96.42,59.98 128.38,70.85 -20.24,61.86 -124.95,136.03 -183.36,148.63l-35.17 -105.36c-16.79,-63.44 -37.43,-114.78 -44.38,-182.57zm-412.39 7.51c2.96,-45.25 -4.7,-149.07 19.18,-198.06 13.14,-26.96 6.42,-13.49 19.96,-25.44 48.16,9.87 182.22,101.88 256.34,138.34 -1.93,1.92 -4.22,1.73 -6.03,5.49l-135.13 42.51c-46.83,16.96 -100.59,38.65 -154.32,37.16zm734.4 -136.09c4.58,87.97 9.66,84.04 -11.67,170.65l-14.27 37.54c-7.08,10.43 -7.44,9.81 -13.21,15.31 -75.48,-21.23 -186.32,-110.15 -255.93,-138.28 1.88,-1.95 4.92,-7.16 5.93,-5.57 0.83,1.3 5.58,-5.87 11.38,-9.67 17.49,-11.44 242.34,-70.41 277.77,-69.98zm-491.94 -280.41c24.65,34.76 81.82,260.94 76.24,288.41 -42.99,-14.84 -90.63,-49.36 -124.17,-67.77l-128.83 -71.05c7.23,-35.54 10.86,-37.76 31.81,-59.14 41.39,-42.25 83.28,-77.14 144.94,-90.45zm185.27 303.27c11.13,-56.03 115,-195.26 139.29,-262.91 64.09,18.34 142.15,121 141.07,188.97 -21.68,6.25 -36.6,11.47 -63.31,19.68 -44.54,13.69 -171.41,49.51 -217.05,54.26zm-128.58 -322.01c181.46,-9.45 96.09,-4.77 229.41,28.38 -12.21,40.67 -61.28,117.03 -88.94,164.21l-42.78 77.63c-20.09,24.72 -2.6,5.14 -18.14,17.7l-16.14 -24.96c-0.78,-2.03 -2.08,-7.96 -2.63,-10.03 -24.67,-93.74 -47.44,-161.53 -60.79,-252.93zm-382.3 -385.94c-45.92,-7.88 -97.9,21.7 -86.29,59.99 4.21,13.88 75.8,78.17 15.54,128.06 -15.14,12.53 -49.37,18.85 -72.68,11.38 -48.45,-15.51 -45.86,-79.94 -106.49,-22.17 -68.54,65.3 18.55,72.51 36.1,105.57 25.79,48.59 -8.42,111.62 -70.06,100.23 -37,-6.84 -34.94,-28.93 -75.95,-22.08 -31.73,18.52 -44.37,63.28 -36.04,99.21 44.11,16.69 121.04,21.26 93.31,95.02 -35.13,93.45 -90.16,17.01 -134.3,50.29 -25.7,14.71 -25.36,73.92 -11.78,94.53 21.18,17.77 142.92,-14.07 118.57,88.13 -5.86,24.59 -31.12,46.54 -50.26,52.01 -44.32,12.67 -84.27,-14.59 -72.28,69.51 10.73,75.33 64.99,21.2 119.34,37.39 51.93,15.47 47.4,46.98 39.33,102.58l-86.87 44.64c-6.12,30.48 -2.66,63.67 18.52,82.36 43.16,38.07 83.96,-53.51 156.05,0.35 42.39,31.68 44.8,28.18 36.38,86.19 -11.38,5.44 -68.29,38.39 -78.68,49.3 -20.64,44.4 45.92,105.96 92.46,57.18 22.69,-23.79 32.6,-35.26 70.17,-32.16 55.68,4.6 75.58,55.7 56.38,101.41 -17.24,41.04 -62.38,50.9 -1.31,90.3 29.32,18.92 42.44,21.74 62.95,-1.26 0.69,-0.78 48.46,-79.23 58.17,-60.53l27.49 -1.36c75.12,6.3 65.11,58.44 51.19,112.66 -9.82,38.25 21.7,56.28 58.9,58.94 74.84,5.36 19.3,-97.27 96.07,-110.48 53.04,-9.13 85.14,17.83 89.28,57.57 4.07,39.09 -14.01,73.12 39.06,79.71 119.73,14.88 11.08,-120.56 109.95,-140.4 34.27,-6.88 63.07,0.54 80.15,27.53 21.5,33.98 10.41,93.47 66.25,75.5 118.43,-38.14 -25.03,-122.45 67.71,-169.59 24.23,-12.32 70.73,-8.67 90.63,14.61l5.76 8.28c31.01,48.74 33.33,64.05 87.51,26.33 25.38,-17.66 27.68,-37.95 8.57,-62.78 -13.08,-16.99 -19.46,-12.3 -23.72,-38.85 -4.01,-25.05 6.92,-51.88 14.54,-72.36 14.69,-6.96 33.04,-17.43 56.48,-16.35 74.12,3.42 69.67,100.48 138.28,9.71 29.13,-38.54 -21.98,-53.99 -41.36,-77.77 -40.39,-49.55 -7.98,-150.58 77.79,-114.8 18.77,7.83 23.55,18.3 39.53,22.57 18.1,4.83 26.32,-0.82 35.94,-11.53 6.38,-7.1 9.5,-14.61 12.14,-19.57 45.64,-85.59 -69.9,-55.61 -84.42,-123.11 -6.23,-28.96 7.05,-68.08 29.39,-80.63 38.66,-21.73 118.16,28.84 125.71,-42.37 3.97,-37.52 -4.78,-38.07 -11.84,-57.79 -59.8,-8.68 -110.99,-7.42 -115.79,-63.64 -2.44,-28.67 6.76,-53.32 23.54,-67.25 22.87,-18.98 31.87,-12.2 63.41,-15.58 41.83,-4.48 46.37,-62.48 24.02,-92.05 -24.57,-32.52 -81.44,11.9 -124.98,-16.48 -35.74,-23.3 -33.83,-92.21 5.26,-117.4 45.35,-29.22 94.61,-19.61 43.25,-96.88 -5.06,-7.61 1.96,-2.81 -9.33,-10.64 -17.32,-12 -33.02,-7.25 -48.22,2.94 -1.62,1.09 -5.73,4.79 -7.39,5.88 -38.54,25.49 -77.67,7.66 -109.37,-19.2 -1.16,-0.98 -2.63,-2.23 -3.8,-3.23l-23.48 -19.51 6.7 -46.16 61.88 -35.52c45.64,-29.85 0.91,-110.28 -47.88,-94.19 -24.73,8.15 -34.37,40.09 -58.2,48.83 -64.49,23.67 -129.87,-37 -86.86,-107.77 10.62,-17.46 35.4,-37.09 19.14,-63.46 -10.22,-16.58 -43.95,-36.94 -74.71,-34.02 -42.21,16.66 -19.89,113.68 -121.15,77.46 -53.09,-18.99 -42.67,-68.03 -29.49,-106.02 11.31,-32.58 4.67,-9.75 3.92,-43.32 -13.63,-11.02 -50.54,-25.42 -74.89,-23.09 -26.31,2.52 -14.25,-6.4 -25.44,18.45 -6.53,14.49 -6.19,26.2 -10.38,41.45 -19,69.19 -95.46,73.67 -125.57,27.47 -27.87,-42.78 19.79,-117.18 -59.63,-112.47 -90.63,5.38 -26,68.41 -66.25,120.85 -24.03,31.31 -80.95,24.75 -103.37,5.19 -28.07,-24.49 -13.9,-79.04 -52.45,-87.3 -35.93,-7.69 -81.47,14.87 -75.77,54.3 2.99,20.7 4.85,2.19 11.3,33.83 3.84,18.88 1.68,46.98 -13.23,66.76 -38.03,50.42 -103.08,21.85 -132.06,-49.39z"/>
   <path class="fil0" d="M4670.98 605.19c2.25,-0.23 4.73,-0.96 6.7,-1.16l13.55 -1.54c29.48,-0.68 75.27,16.69 100.29,28.65 86.6,41.41 149.93,137.26 142.95,249.13 -9.71,155.78 -113.77,259.18 -274.44,263.54 -196.48,5.34 -329.96,-199.89 -237.16,-394.37 29.64,-62.12 79.2,-106.69 142.44,-130.37 67.5,-25.27 72.87,-10.54 105.67,-13.88zm-220.2 -573.7c-34.56,3.77 -71.17,27.32 -99.53,28.31l3.1 156.69 -29.4 12.64c-9.38,4.63 -5.78,2.74 -12.72,6.57 -17.05,9.41 -26.8,16.05 -36.9,28.81 -30.07,-8.86 -116.45,-64.44 -129.96,-79.93 -14.85,-0.84 -19.86,6.46 -33.48,17.95l-52.55 50.9 61.37 130.27 -53.14 75.63 -158.79 -9.35 -37.85 72.79 57.1 53.26c1.45,1.23 5.68,4.74 7.18,5.97 19.31,15.79 37.69,20.06 43.17,44.02 -1.3,17.09 -22.19,87.86 -28.46,100.76l-147.92 28.44c-2.69,34.15 -13.58,81.04 -5.46,108.7 4.4,2.51 135.03,44.31 148.95,47.29 -5.36,35.46 1.47,60.36 5.69,88.45 -13.52,16.48 -4.51,5.83 -16,16.62 -30.54,28.71 -83.28,50.63 -116.17,71.16 1.75,19.19 10.82,36.65 15.84,55.24 5.66,20.95 5,29.9 15.8,50.56 58.77,-2 108.99,-14.15 163.11,-9.15 25.95,91.48 74.86,60.98 -0.62,156.46 -9.97,12.61 -37.81,48.74 -41.74,66.61 14.76,18.65 54.22,60.58 61.04,79.47l106.99 -56.03c64.3,-32.95 62.99,18.92 116.23,38.07l-32.64 156.88c19.04,16.2 64.83,34.73 91.65,40.48l13.35 -9.53c5.64,-6.25 7.91,-9.02 13.47,-15.38 25.89,-29.6 43.34,-55.63 76.02,-79.49l100.23 26.17c10.95,21.47 14.22,52.12 18.25,79.36 4.57,30.84 9.37,52.58 17.3,73.95 35.5,-6.41 66.17,8.16 100.83,2.14 3.27,-21.75 37.72,-120.08 51.17,-138.39 25.73,-11.22 71.44,-12.94 104.97,-8.51l54.33 95.26c10.73,14.01 13.97,3.73 15.26,29.46 24.11,-16.33 66.81,-27.28 99.2,-32.84 5.4,-44.83 -11.17,-104.65 -3.42,-162.28 29.46,-7.18 53.78,-23.11 73.93,-41.95 41.27,6.28 50.83,18.23 79.5,37.95 19.5,13.42 43.34,31.77 63.44,42.64 12.99,-18.68 54.35,-55.51 76.68,-63.5 -14.87,-21.2 -51.42,-102.03 -64.31,-130.73 -1.8,-30.32 44.39,-59.36 55.35,-86.3l153.12 32.83c10.65,-25.06 27.03,-56.32 43.76,-85.21 -5.79,-17.41 -32.49,-40.11 -46.94,-52.09 -2.35,-1.94 -11.11,-8.71 -15.98,-12.65l-28.32 -25.31c-24.89,-28.47 -8.11,-46.51 10.97,-124.18l123.7 -22.75c43.08,-9.05 29.19,-64.24 31.67,-108.24 -42.57,-17.01 -99.22,-29.49 -139.42,-48.48 -0.62,-1.84 -1.14,-6.49 -1.64,-5.58l-3.8 -16.88c-0.05,-0.34 -1.85,-21.45 -2.63,-28.07 -2.86,-24.34 -6.51,-25.71 -3.43,-58.96 45.87,-9.69 80.57,-51.07 124.95,-71.18 -3.31,-14.81 -8.78,-27.69 -13.73,-42.8 -2.81,-8.58 -4.11,-12.27 -6.89,-25.95 -2.98,-14.72 -1.51,-18.81 -5.82,-27.9 -27.15,-8.97 -120.22,7.91 -162.32,3.41 -11.66,-30.92 -24.65,-59.39 -48.89,-81.26 9.74,-34.89 22.99,-47.06 42.56,-74.68 12.27,-17.31 28.41,-47.6 44.55,-60.98l-33.42 -40.05c-11.67,-15.25 -22.36,-29.52 -35.54,-42.51l-90.68 50.23c-64.85,34.27 -62.19,-4.03 -120.47,-35.32 8.7,-59.91 24.12,-103.21 32.02,-158.59 -23.01,-13.46 -62.67,-31.93 -89.99,-46.21 -14.19,13.32 -32.97,31.02 -51.05,50.75l-36.68 45.6c-18.7,27.06 2.91,-25.88 -9.87,18.44l-110.65 -28.09 -25.61 -147.86 -105.93 -13.56c-4.88,25.31 -27.63,83.91 -32.93,100.13 -18.19,55.61 -20.1,44.57 -76.55,54.83 -50.37,9.16 -56.62,-22.98 -73.31,-50.24 -13.24,-21.61 -37.92,-46.93 -44.27,-73.23z"/>
   <path class="fil0" d="M9111.13 952.87c2.24,-0.24 4.75,-0.9 6.69,-1.08 1.93,-0.19 4.29,-0.73 6.69,-0.89 70.3,-4.71 148.54,32 195.57,81.01 102.85,107.18 93.62,289.91 -12.65,387.5 -35.44,32.55 -106.94,70.96 -178.51,73.24 -277.25,8.83 -357.05,-321.5 -195.22,-469.09 69.98,-63.83 99.68,-62.23 177.43,-70.68zm-26.94 -460.67c-92.01,8.37 -94.18,43.2 -161.09,-81.54 -6.81,-12.7 -11.79,-25.2 -17.7,-38.29 -20.94,5.57 -30.72,12.32 -50.58,18.58 -10,3.15 -32.5,7.93 -48.67,12.41 -3.75,39.73 10.58,103.34 5.86,138.4 -3.27,24.27 -74.56,68.41 -89.39,67.95 -30.03,-11.24 -100.86,-64.73 -131.43,-86.14 -8.96,33.77 -48.13,55.49 -73.42,73.44 81.24,147.67 66.23,127.08 32.2,172.46 -1.33,1.78 -10.19,28.71 -25.49,35.77 -50.52,2.65 -102.43,-19.35 -150.24,-25.01 -6.43,17.58 -32.11,73.78 -46.22,85.93 2.03,10.02 92.07,86.08 109.41,102.61 -2.85,35.26 -20.04,71.75 -27.88,107.88 -48.61,4.99 -103.23,20.38 -148.66,29.25l-7.99 99.93c25.19,24.08 74.52,28.87 106.72,39.69 53.88,18.11 47.67,57.86 43.64,110.29 -12.54,8.71 -18.21,12.59 -34.24,23.01l-93.71 59.56c7.81,21.92 27.52,79.78 28.92,102.59l73.55 -6.15c22.33,-1.18 72.95,-15.62 91.6,7.12 2.62,3.2 10.03,13 10.12,13.13 12.86,19.41 18.32,44.21 36.55,59.88 -10.02,35.89 -19.5,46.52 -43.79,74.05l-45.5 61.29c16.87,27.52 43.87,60.72 65.62,81.79 21.69,-14.58 40.04,-21.41 62.83,-32.17 20.86,-9.86 47.67,-33.62 73.79,-33.72 43.73,10.86 43.98,36.11 86.67,53.03l-36.2 156.57c31.89,10.6 67.78,35.52 95.08,41.96 12.21,-19.64 77.92,-94.06 96.7,-108.53 22.43,0.34 75.91,14.62 106.72,29.71 11.13,40.95 16.41,118.79 29.66,145.16 39.87,9.22 66.4,4.39 100.22,7.77 11.22,-20.83 42.89,-115.55 49.73,-144.15l75.08 -7.32c2.1,-0.01 3.78,-0.13 5.92,0 2.21,0.14 3.9,0.32 6.08,0.6l12.56 2.95c25.09,5.62 20.97,30.11 34,46.8l49.32 76.23c24.36,-8.82 64.92,-28.96 95.51,-28.61l-7.99 -162.75c28.57,-2.67 45.3,-22.84 69.85,-34.29 0.02,-0.01 14.21,-5.49 14.67,-5.63 27.04,-8.23 52.59,19.51 76.51,36.12l56.87 41.97c11.07,-15.13 25.79,-19.86 39.75,-32.28 11.68,-10.39 30.11,-38.11 43.47,-29.88 -110.25,-192.51 -49.89,-122.35 -15.57,-217.95 31.79,4.61 70.47,8 98.06,20.97 40.94,5.94 54.34,21.22 70.48,-12.17 8.22,-17.02 21.2,-54.81 35.43,-66.9 -35.24,-25.79 -73.99,-73.14 -113.96,-97.48l34.65 -109.77 30.9 -9.91c8.47,-1.62 30.42,-4.94 41.36,-7.2 25.71,-5.28 50.89,-10.23 75.53,-15.18 -11.73,-24.47 13.78,-74.09 0.21,-94.4 -21.29,-31.87 -84.51,-29.42 -118.19,-49.74 -37.65,-22.7 -32.27,-70.52 -26.78,-112.83 39.85,-19.05 86.88,-62.31 125.68,-76.19 -14.12,-20.85 -29.38,-71 -32.98,-98.22 -45.68,4.31 -111.63,10.98 -149.76,9.79l-29.18 -42.43c-50.14,-86.64 -5.72,-79.06 55.13,-175.08 -8.22,-24.12 -14.8,-16.45 -30.79,-36.69 -5.27,-6.66 -25.77,-38.22 -32.11,-48.66l-35.02 20.39c-1.12,0.73 -2.72,1.87 -3.84,2.59 -21.27,13.64 -78.17,48.97 -99.27,46.03 -18.44,-2.58 -41.1,-29.71 -54.54,-40.78 -10.91,-8.99 -19.48,-14.98 -18.07,-28.98 4.74,-47.17 18.94,-95.58 30.43,-139.35 -10.05,-8.63 -42.89,-25.62 -58.56,-33.84 -47.77,-25.07 -65.02,11.81 -119.75,80.6 -20.78,26.13 -36.16,13.97 -67.6,5.78 -10.1,-2.63 -24.94,-6.56 -29.07,-8.45l-28.43 -22.51c-8.55,20.13 -2.28,-6.01 -2.69,-7.59l-9.47 -51.43c-5.11,-27.43 -10.61,-43.67 -7.36,-71.74 -22.83,-13.49 -43.86,-11.49 -73.21,-12.16 -58.69,-1.34 -45.31,23.1 -86.6,142.08z"/>
   <path class="fil0" d="M11054.58 1592.26c81.43,11.82 204.82,73.9 274.36,122.91 108.58,76.52 137.28,132.95 198.12,219.53l14.79 24.29c76.23,138.72 113.17,338.98 75.83,497.35 -54.75,232.2 -151.1,383.41 -350.29,501.98 -237.96,141.65 -550.12,134.93 -776.77,-13.29 -89.82,-58.74 -127.78,-89.79 -190.02,-177.57 -51.64,-72.81 -57.12,-63.51 -98.94,-168.53 -8.28,-20.78 -15.03,-40.71 -21.39,-61.43 -63.06,-205.45 -30.76,-417.74 74.79,-601.6 64.07,-111.61 104.17,-130.1 172.11,-198.08 47.35,-47.39 161.05,-103.14 226.51,-124.48 159.03,-51.85 238.91,-44.6 400.9,-21.09zm-148.27 -418.44c-14.5,68.95 -50.29,125.39 -61.97,192.32 -50.19,-5.58 -83.4,13.91 -128.99,8.25l-19.28 -21.67c-21.51,-26.46 -75.08,-110.95 -85.04,-142.23 -11.32,-0.14 -116.76,35.61 -134.19,41.67 -6.18,51.26 13.26,140.29 4.26,196.15l-80.81 48.73c-10.02,7.12 -15.37,12.53 -24.39,18.9 -59.88,-14.49 -115.29,-77.9 -173.16,-108.9 -30.88,27.56 -69.12,70.58 -105.8,93.41 25.83,38.13 68.88,130.3 81.7,180.42l-81.33 96.05c-212.07,-44.47 -176.09,-58.94 -213.21,10.44 -13.15,24.57 -27.71,47.46 -37.14,74.63 47.47,31.14 106.02,84.8 145.03,129.37l-38.05 138.71c-22.83,2.3 -192.55,25.39 -197.27,42.46l-9.03 133.93c206.32,64.63 186.54,32.61 196.9,123.72 2.13,18.72 7.41,43.69 5.51,73.8 -54,6.08 -117.64,76.24 -169.29,96.83 1.36,46.73 40.08,90.75 41.9,139.45 34.09,-4.11 65.41,-7.64 100.49,-9.09 17.15,-0.71 32.78,-1.25 51,-2.7 9.3,-0.74 18.41,-2.15 28.18,-1.78l30.53 5.13c0.74,1.51 2.23,2.12 2.34,4.47l4.55 8.87c14.63,29.69 38.83,59.46 46.05,89.86 14.64,61.69 -127.85,144.32 -94.86,198.48l79.88 87.48 19.97 -12.75c6.84,-3.85 13.99,-7.26 21.44,-11.03l86.04 -42.41c73.77,-37.16 65.49,-13.98 128.52,34.07 19.15,14.6 24.02,17.07 21.03,39.43 -6.92,51.72 -22.7,129.88 -41.32,175.86 28.32,20.15 39.11,19.4 64.3,32.09 17.8,8.97 49.23,19.97 61.75,33.43 21.43,-29.85 108.61,-146.26 141.32,-143.22 40.88,3.8 80.82,17.38 130.79,30.59 -0.98,17.81 3.33,37.42 5.73,49.65l26.74 147.64 133.23 10.87c12.07,-11.92 62.91,-165.08 68.24,-190.66 37.83,-3.43 80.79,-13.42 118.25,-10.61l11.64 1.97c18.63,2.94 22.93,29.01 31.69,41.72 11.55,16.77 13.69,23.31 25.22,40.05l51.37 83.64c13.84,-8.83 108.05,-40.62 129.62,-42.75 5.71,-47.39 -5.58,-100.42 -8.09,-149.92 -1.56,-30.87 -2.52,-31.88 3.37,-58.5 31.86,-10.59 85.56,-59.44 117.56,-58.36 21.53,0.72 141.27,88.71 159.58,108.36 8.66,-5.74 15.87,-9.83 25.33,-17.63 22.61,-18.64 54.52,-59.28 82.15,-72.24 -5.46,-8.05 -83.24,-156.23 -82.66,-173.82 0.69,-20.98 55,-81.52 69.12,-104.56 61.91,8.99 143.93,22.95 203.11,40.52 13.04,-47.27 46.7,-79.04 60.9,-123.61 -36.81,-21.52 -72.36,-61.82 -106.4,-92.41 -15.54,-13.96 -20.46,-22.03 -40.12,-30.03l28.5 -111.99c3.02,-9.42 1.85,-8.81 6.77,-17.93 8.84,-16.4 1.13,-7.2 13.15,-18.06 11.9,-5.14 169.93,-34.16 183.46,-34.09l11.71 -140.01c-66.13,-22.26 -121.96,-38.29 -181.27,-61.03l-10.5 -30.23c-1.36,-6.87 -1.69,-19.55 -2.84,-32.45 -3.05,-34.12 -7.7,-40.84 -7.24,-74.01l120.52 -75.27c17.92,-13.01 21.7,-17.23 44.84,-22.14 -0.07,-46.78 -26.56,-90.47 -37.21,-135.38 -113.24,-8.12 -184.63,44.67 -224.93,-25.88 -6.51,-11.4 -11.2,-22.66 -17.52,-32.87 -44.54,-72.02 -11.88,-84.49 31.93,-147.47 16.47,-23.68 28.34,-49.19 47.65,-65.03 -9.11,-31.65 -63.37,-77.28 -84.68,-113.64 -27.91,14.62 -150.17,69.46 -168.23,90.4 -35.8,-10.88 -35.86,-17.51 -63.7,-40.1 -20.69,-16.79 -34.26,-25.5 -53.09,-37.53 18.17,-64.58 29.51,-129.63 46.79,-202.19 -31.53,-6.19 -61.91,-26.6 -89.42,-40.55l-27.59 -16.93c-10.49,2.28 -7.83,4.91 -14.44,11.1l-53.58 54.5c-27.98,24.52 -42.18,51.48 -65.89,78.44 -30.69,-0.8 -102.59,-22.43 -140.09,-32.68 -1.73,-7.83 -4.33,-16.28 -5.68,-22.4l-14.29 -77.77c-4.66,-28.61 -10.42,-68.75 -17.21,-96.81l-139.78 -12.58z"/>
   <path class="fil0" d="M5020.02 3008.99c-2.65,-60.97 30.15,-109.17 57.04,-139.42 77.63,-87.3 310.95,-76.76 321.21,134.1 8.78,180.34 -227.49,252.04 -327.6,136.03 -35.31,-40.92 -48.19,-73.82 -50.66,-130.72zm72.02 -380.62c-34.45,237.36 -418.25,198.34 -373.93,-61.17 41.33,-241.98 410.85,-193.29 373.93,61.17zm508.95 -114.9c279.33,-4.14 253.47,358.29 31.59,377.52 -84.11,7.29 -158,-37.48 -188.97,-107.89 -55.36,-125.86 36.16,-267.83 157.38,-269.64zm-318.91 -32.86c-107.9,-15.66 -174.13,-115.86 -156.73,-218.57 18.04,-106.51 108.02,-166.72 211.35,-157 73.97,6.96 124.65,55 149.34,111.59l8.52 25.14c36.8,120.78 -63.72,260.42 -212.48,238.83zm367.79 -388.14c4.22,-47.59 14.7,-112.91 35.51,-151.75l-96.08 -43.83c-21.8,21.61 -51.24,47.69 -68.47,74.91 -14.15,22.35 -11.92,30.66 -39.26,27.65l-80.07 -17.83c-1.74,-5.93 -5.19,-16.83 -6.79,-22.74 -11.63,-42.88 -12.92,-77.2 -18.9,-124.72l-105.37 -2.49c-9.53,22.28 -12.44,40.88 -20.45,64.88 -6.22,18.64 -16.52,44.89 -23.32,68.51 -43.08,0.81 -55.28,11.43 -100.06,7.54 -19.6,-40.99 -47.13,-74.28 -64.06,-116.37 -25.27,2.23 -74.86,19.6 -101.36,29.13l9.24 138.78c-1.57,1.28 -3.7,2.68 -4.96,3.53 -1.22,0.82 -3.39,2.42 -4.87,3.4 -23.67,15.66 -54.4,36.37 -78.21,42.2l-116.37 -78.65c-28.31,20.49 -56.37,42.14 -78,69.45 18.28,49.05 54.36,88.98 56.81,135.35 -17.33,13.13 -36.87,38.79 -46.34,59.5l-144.23 -29.67 -42.7 97.53 96.51 79.33c10.11,9.19 1.68,2.37 9.82,9.83 -12.74,43.38 -3.9,-5.93 -17.53,42.29 -5.08,17.98 -8.22,35.96 -13.8,53.33 -49.95,18.98 -94.46,13.07 -137.2,30.36l-6.65 100.74c24.01,8.14 42.08,10.37 70.34,20.13l49.2 17.95c24.15,10.49 19.74,25.86 22.27,53.05 1.52,16.38 7.47,37.24 -10.09,50.83l-83.51 56.6c-12.97,7.61 -15.89,9.61 -24.75,20.06l26.33 88.94c46.19,5.6 106.67,-8.97 156.28,-8.51 5.35,25.76 20.1,42.08 31.28,65.17 17.01,35.14 -3.94,49.12 -25.24,75.25 -18.29,22.46 -37.44,40.92 -49.8,68.96 17.68,28.61 44.74,48.12 59.7,79.27l62.05 -35.04c19.95,-9.69 42.93,-15.87 58.43,-31.54 51,9.46 53.15,27.32 90.48,50.65 -2.52,36.32 -30.84,108.2 -29.04,147.03l86.15 39.51 92.12 -103.42 102.35 26.16 17.69 103.81c0.34,2.41 2.61,20.92 2.62,20.99 5.92,27.41 6.26,15.51 98.39,24.88 12.7,-22.71 42.35,-106.83 47.5,-141.44 31.24,5.8 44.07,-5.55 76.49,-4.39l18.01 3.5c6.53,-8.27 36.73,51.83 44.29,61.96l10.94 15.74c6.05,10.04 1.58,4.73 9.44,16.87 6.53,10.11 12.41,17.26 19.32,23.5 10.1,-9.69 -7.33,2.34 10.82,-7.2 76.13,-40 77.41,14.78 71.5,-100.73 -0.01,-0.22 -2.62,-33.28 -2.65,-35.34 -0.8,-56.27 40.62,-43.51 74.24,-80.77 33.7,7.04 115.36,56.26 130.02,79.55 14.74,-20.14 52.67,-54.52 76.62,-63.08 -9.9,-8.88 -41.99,-77.56 -50.76,-98.36 -23.51,-55.78 22.15,-60.65 40.22,-107.01l143.78 30.43c14.3,-21.4 27.69,-71.31 45.69,-82.32 -14.28,-16.04 -35.67,-32.09 -53.24,-47.75 -7.07,-6.29 -5.58,-5.06 -14.21,-13.13l-39.86 -29.28c6.38,-39.39 14.83,-103.13 56.84,-113.43l46.96 -8.44c22.08,-4.38 48.71,-8.23 64.49,-15.09l9.38 -92.99c-1.99,10.08 3.24,3.43 -5.21,0.15 -103.79,-40.22 -129.28,-19.61 -137.7,-100 -0.03,-0.24 -1.51,-22.33 -1.44,-23.09 0.2,-2.17 0.57,-4.12 0.87,-6.11 4.82,-31.6 91.74,-81.21 117.72,-90.5 -16.04,-23.67 -19.84,-54.35 -27.19,-91.63 -56.59,-2.17 -97.05,11.86 -155.68,4.38l-16.27 -41.69c-11.57,-21.26 -10.75,-16.32 -25.46,-31.79 14.62,-53.95 54.57,-90.66 79.01,-130.1 -29.28,-30.93 -31.85,-50.5 -56.94,-79.3 -24.34,6.04 -20.63,6.34 -36.47,18.43 -18.27,13.95 -9.1,8.47 -28.45,18.4 -91.08,46.75 -51.56,25.07 -138.67,-18.84z"/>
   <path class="fil0" d="M8928.77 3185.19c75.41,1.35 91.04,-28.86 145.32,-26.11l123.47 178.55c7.17,10.32 16.87,22.88 21.91,30.51 13.76,20.85 12.26,11.19 13.55,43.18 -114.68,50.65 -197.51,106.19 -349.28,84.16l45.03 -310.3zm-410.87 108.91c53.67,-48.95 123.94,-89.87 176.1,-139.65 68.84,-65.7 76.07,-50.02 100.47,-28.67 58.08,50.82 74.68,39.61 98.62,67.69 -5.36,45.97 -18.66,103.47 -26.59,151.22 -3.99,24.04 -8.32,48.33 -11.91,72.43 -3.36,22.56 -3.98,52.03 -16.96,70.63 -62.53,-6.18 -143.38,-46.05 -190.55,-73.88 -27.19,-16.03 -51.11,-33.36 -72.93,-51.83 -13.43,-11.38 -20.22,-18.18 -31.05,-29.29 -7.37,-7.57 -9.62,-9.37 -15.18,-18.19 -9.59,-15.2 -4.08,-4.07 -10.02,-20.46zm-107.55 -393.16l322.59 46.82c-7.57,70.75 1.61,65.59 17.21,117.09 -20.35,24.65 -69.73,60.76 -95.3,76.36l-154.66 116.38c-29.17,-16.71 -33.22,-33.27 -51.04,-74.76 -9.39,-21.84 -20.65,-56.19 -27.26,-80.55 -14.39,-53.08 -22.43,-126.06 -11.54,-201.33zm688.79 228.03c1.05,-1.76 2.41,-3.93 3.25,-5.22 0.83,-1.27 2.21,-3.61 3.23,-5.13l15.57 -20.92c5.68,-7.31 9.84,-11.82 16.94,-24.26 12.81,-22.41 14.38,-42.83 31.62,-62.24l297.13 43.07c-11.75,69.1 -41.28,138.32 -71.91,185.13l-102.42 133.37c-22.34,-8.91 -12.78,-5.15 -24.92,-15.71l-165.24 -223.01c-0.29,-2.86 -2.2,-3.38 -3.27,-5.09zm-178.15 -261.81c155.54,-30.57 170.07,178.6 49.16,201.98 -61.96,11.99 -116.81,-24.23 -125.41,-82.97 -9.33,-63.72 29.71,-109.87 76.24,-119.01zm-504.84 -5.9c11.16,-75.18 43.81,-143.18 77.39,-193.38 31.68,-47.35 73.05,-104.36 128.13,-119.04l179.94 241.19c-26.22,48.69 -43.79,51.57 -65.61,113.28 -67.29,3.79 -242.79,-30.87 -319.86,-42.05zm895.43 -164.98c50.98,-38.22 29.51,-32.64 71.27,-38.54 12.05,25.34 27.6,48.01 39.88,77.02l27.99 81.09c5.55,20.57 7.48,24.05 11.18,43.76 3.42,18.25 5.19,27.67 6.73,42.1 3.87,36.27 2.98,73.53 -2.75,111.89l-303.53 -44.05c4.02,-28.52 3.01,-42.54 -8.2,-71.78 -6,-15.65 -8.99,-18.01 -14.15,-29.81 -12.74,-29.18 -6.04,-1.65 -10.92,-38.01l182.49 -133.65zm-274.81 -255.23c96.19,14.41 255.08,94.12 300.99,176.4 -5.68,13.04 -5.97,11.32 -12.57,18.86 -20.68,23.63 -189.28,135.68 -220.11,169.85 -44.84,-13.09 -63.27,-42.29 -114.01,-50.26l45.69 -314.85zm-394.31 68.79c54.51,-25.96 89.47,-45.02 160.51,-63.32 60.39,-15.55 130.23,-22.6 201.3,-12.28l-52.97 307.56c-21.73,4.12 -47.58,2.3 -65.37,8.53 -33.16,11.62 -14.27,18.06 -65.69,21.24l-136.42 -186.68c-27.19,-36.35 -36.06,-37.53 -41.36,-75.05zm586.84 1070.43c17.69,-2.98 29.29,-10.06 44.52,-19.84 75,-48.21 75.45,11.43 161.92,55.7 19.15,-15.44 51.62,-55.62 73.54,-63.53 -9.97,-7.34 -51.28,-94.06 -59.93,-110.57 4.51,-52.11 31.54,-47.42 48.9,-91.79l143.38 33.55c15.01,-20.17 37.57,-70.55 46.58,-88.42 -11.46,-9.3 -14.44,-10.34 -26,-20.6 -26.45,-23.49 -79.46,-50.74 -75.43,-87.91l8.54 -34.01c6.34,-20.82 10.81,-35.71 14.19,-57.65 45.51,4.57 98.27,-17.35 138.63,-20.41l8.92 -99.81 -136.1 -53.43 -7.48 -82.04 65.2 -46.07c8.99,-6.55 52.18,-33.23 54.14,-37.75 -5.71,-8.43 -3.58,-5.8 -8.5,-18.97 -7.41,-19.86 -9.4,-52.32 -26.22,-67.02 7.83,-7.97 12.42,-1.54 -4.96,-1.74l-94.45 6.71c-68.22,4.61 -49.23,-34.93 -90.13,-79.68 23.19,-56.06 57.92,-74.33 79.14,-130.08l-58.24 -73.69c-12.74,5.34 -19.03,7.61 -32.6,16.41 -24.38,15.81 -63.83,31.44 -84.9,49.59 -47.78,-11.81 -43.45,-31.15 -86.97,-50.69 7.82,-53.87 18.06,-97.32 30.86,-150.57 -33.63,-8.69 -50.39,-25.35 -84.14,-40.06 -15.67,10.1 -31.32,33.69 -46.33,48.33 -22.57,22.01 -28.73,25.42 -42.75,54.22 -31.43,-4.56 -92.19,-10.61 -109.32,-36.06 -14.18,-21.06 -22.84,-105.09 -21.59,-131.19l-98.7 -7.36 -54.02 131.44c-27.69,7.6 -70.53,16.25 -96.53,14.97 -7.26,-37 -44.88,-61.28 -59.11,-124.66 -33.48,3.57 -74.64,18.56 -106.04,33.39l5.53 142.31c-29.43,21.45 -50.04,38.51 -84.11,48.45 -41.95,-23.7 -87.21,-46 -110.31,-76.23 -19.17,12.3 -63.5,48.37 -78.7,67.73l40.77 89.83c30.77,74.41 10.42,25.72 -31.6,109.47l-145.57 -30.13c-10.31,26.82 -37.59,63.06 -42.41,89.41 30,11.01 56.42,44.41 77.25,65.38 18.6,18.73 10.66,4.89 25.1,25.55 3.78,15.08 -26.14,88.12 -26.47,88.76 -0.92,1.77 -3.54,6.93 -3.92,5.88 -0.39,-1.08 -2.67,4.05 -4.22,5.9 -32.67,10.93 -99.04,19.71 -134.73,19.41l-6.22 105.57c120.13,55.79 143.24,-14.71 146.69,145.94 -26.26,-4.15 -41.25,11.59 -65.91,27.21 -23.34,14.78 -45.54,27.31 -59.28,42.31 6.51,33.02 23.7,63.19 25.68,95.98 56.87,-0.87 98.25,-15.74 159.72,-8.35 8.88,19.38 26.77,60.17 43.25,73.7 -13.2,54.72 -61.17,82.21 -85.29,129.18 12.65,28.06 45.03,59.56 62.07,77.5 33.71,-10.64 37.94,-19.09 66.07,-32.47 72.96,-34.68 54.91,-39.57 109.25,-1.29 14.34,10.1 21.28,15.2 35.29,22.83l-34.51 143.29c28.27,16.99 66.56,27.89 87.87,46.5 10.93,-24.94 70.32,-76.15 89.92,-108.32 148.19,30.61 99.45,39.39 130.56,169.59l95.31 4.78c17.21,-24.85 25.9,-70.74 36.91,-101.98l15.81 -31.9 100.62 -5.69c6.44,37.76 40.33,73.75 60.1,108.03l6.26 9.48c27.65,-22.58 102.34,-6.73 90.65,-61.7 -8.24,-38.73 -8.14,-79.3 -5.44,-120.63z"/>
   <path class="fil0" d="M12331.24 1669.58c17.19,-31.2 1.99,-6.48 16.95,-24.38l191.45 -154.33c34.68,6.89 26.77,4.76 47.05,22.97 8.61,7.74 15.16,14.8 23.91,22.43 68.14,59.37 121.12,70.49 199.06,100.99 5.22,50.82 -27.45,223.17 -36.46,285.25 -107.03,-38.74 -170.41,-49.09 -259.64,-105.14 -31.35,-19.69 -75.37,-48.4 -98.35,-68.25l-83.95 -79.54zm150.52 -247.86c-27.01,9.74 -63.23,43.5 -108.71,75.14 -70.78,49.24 -58.56,79.35 -121.81,73.46 -10.43,-22.77 -17.71,-32.89 -28.88,-55.12 -66.03,-131.42 -117.29,-284.93 -94.62,-441.47l283.92 41.2c-19.82,148.73 71.18,238.69 70.1,306.78zm500.12 875.02l52.72 -363.26c-24.12,-1.83 -51.36,2.46 -72.58,3.09 -32.88,0.97 -49.36,-0.56 -88.75,-6.28l40.82 -281.27c79.99,4.67 101.5,-10.59 163.63,-12.64l59.42 -409.49c-89.3,184.86 -331.69,130.3 -391.67,20.82 -62.71,-114.46 -42.96,-225.2 53.38,-308.41 82.11,-70.92 321.2,-74.85 360.6,133.88l33.27 -229.26 -640.58 -92.96c-20.86,47.92 -77.23,85.05 -111.58,185.83 -10.1,29.62 -13.51,57.44 -34.34,76.15l-270.66 -39.28c17.73,-90.13 56.47,-207.1 102.36,-268.3l-389.12 -56.47c-0.01,56.2 -13.65,72.24 43.92,90.99 30.18,9.83 36.22,7.45 55.18,25.93 12.95,12.62 24.43,30.99 24.64,55.88 0.46,55.65 -27.33,87.36 -68.96,93.92 -48.9,7.7 -80.22,-26.37 -112.54,5.55 -29.4,29.04 -31.73,101.04 -1.16,120.23 41.37,25.95 96.38,-6.83 132.68,50.54l12.57 47.64c-0.91,38.77 -18.79,64.67 -47.84,78.62 -48,23.05 -112.11,-2.01 -114.07,64.28 -3.68,124.05 72.9,82.86 106.26,77.55 106.01,-16.9 150.04,125.28 50.96,169.14 -79.14,35.04 -88.95,37.57 -45.11,120.34 51.4,97.05 97.32,-73.51 213.99,21.55 29.73,24.22 29.21,7.88 43.98,38.77 24.42,71.61 -63.62,90.21 -95.08,116.83 -41.62,35.21 31.94,115.08 65.47,114.77 52.61,-0.48 47.34,-77.84 134.07,-68.32 64.55,7.08 105.65,71.76 64.76,140.3 -14.95,25.05 -77.62,63.77 16.32,115.13 112.8,61.68 60.87,-116.42 191.49,-91.38 60.29,11.56 90.71,66.79 57.88,141.35 -23.97,54.46 4.58,28.82 6.51,67.37 55.93,9.4 107.38,37.2 123.36,-17.69 10.46,-35.94 7.93,-109.9 90.6,-110.87 62.07,-0.72 99.24,38.13 92.78,105.21 -6.87,71.39 23.66,80.45 90.44,74.24z"/>
   <path class="fil0" d="M7002.99 2008.91c-4.06,-126.82 95.56,-292.56 190.43,-374.84 158.96,-137.88 408.18,-161.99 604.28,-56.34 39.51,21.29 89.28,58.12 119.51,89.29 100.04,103.16 157.23,266.13 148.62,414.96 -18.06,312.3 -270.1,505.11 -565.97,493.41 -225.04,-8.9 -404.2,-165.1 -467.45,-348.78 -25.9,-75.21 -26.59,-129.11 -29.42,-217.69zm496.63 -649.99c-110.14,11.3 -65.51,40.58 -131.09,-47.31 -14.63,-19.61 -24.89,-49.27 -40.62,-58.48 -12.93,3.15 -79.98,21.17 -86.2,36.17l2.15 140.55c-39.95,5.25 -54.19,30.13 -88.48,36.43 -28.32,-4.9 -82.73,-62.62 -115.41,-76.32 -89.13,71.45 -72.77,52.97 -41.64,139.31 7.8,21.63 19.77,36.81 25.12,57.82 -23.3,28.18 -31.28,33.62 -47.56,70.3l-144.21 -27.99c-11.41,35.97 -35.13,53.79 -41.3,92.43 40.06,18.82 68.6,66.16 106.69,83.92 -5.15,19.46 -21.9,96.15 -42.52,107.41 -22.72,6.14 -101.04,20.73 -126.87,22.08l-9.7 102.02c43.97,14.08 84.71,18.89 119.84,39.62l10.62 7.4c19.63,13.43 15.18,77.26 13.96,99.73 -31.17,-1.97 -8.38,-5.03 -34.31,9.78 -62.63,35.74 -81.45,56.41 -83.81,60.77 12.81,27.74 14.97,64.75 33.79,92.59 28.9,-9.84 114.41,-10.3 149.08,-5.34 8.04,49.25 55.87,60.02 24.92,110.77 -23.35,38.29 -44.95,48.88 -68.52,98.43 24.53,19.19 40.97,45.17 58.01,68.82 39.95,-7.08 97.41,-64.05 136.14,-60.63 37.32,17.98 34.33,33.9 74.36,44.92 -8.03,55.31 -26.23,102.37 -28.59,150.52l87.47 44.3c8.01,-18.83 78.92,-101.52 95.78,-103.21l93.65 23.47c12.28,46.16 22.25,92.61 24.84,139.91l100.08 7.67c11.22,-35.48 32,-103.09 46.88,-131.29 28.01,-9.94 66.83,-13.11 101.51,-8.89l7.29 17.68c16.8,29.84 53.66,62.76 56.65,99.48 28.36,-7.13 72.2,-28.72 99.79,-23.55l-9.92 -117.3c-1.22,-44.48 38.58,-58.33 74.36,-75.16 11.68,-5.5 -2.21,-0.14 16.51,-7.24 32.92,18.02 77.16,53.07 116.88,77.64l70.6 -62.51c-10.45,-15.12 -18.68,-38.01 -26.49,-54.24l-22.06 -47.46c-9.04,-20.15 -2.23,0.46 -8.42,-22.64 13.55,-32.21 29.41,-55.08 58.32,-76.83l137.08 30.13c8.46,-31.3 23.77,-56.41 39.89,-80.98 -7.27,-22.06 -41.83,-45.25 -60.21,-61.25l-28.9 -25.22c-7.71,-6.13 -7.26,-6.71 -16.11,-11.28l30.29 -103.01c35.38,-9.54 107.57,-26.81 139.71,-25.82 4.09,-28.46 3.74,-65.24 8.54,-99.93l-137.76 -43.5c-6.22,-120.15 -20.04,-85.77 62.43,-144.2 5.3,-3.76 42.48,-23.65 47.85,-25.28l-13.89 -52.81c-0.47,-1.43 -1.13,-3.23 -1.59,-4.65l-11.79 -35.32 -151.14 7.22c-7.82,-31.01 -21.3,-53.82 -41.93,-74.56 10.2,-50.29 54.11,-95.07 78.8,-134.57 -7.39,-1.12 8.22,14.46 -13.67,-9.74 -28.25,-31.23 -27.07,-84.59 -78.88,-54.75l-87.85 52.69c-35.95,-10.48 -51.84,-31.96 -82.91,-51.43 -0.36,-37.32 19.28,-118.23 36.54,-152.72 -34.11,0.41 -58.52,-30.12 -94.2,-35.23 -14.95,2.97 -33.11,31.06 -43.86,43 -8.14,9.04 -13.52,13.4 -22.59,24.94 -19.48,24.78 1.99,11.42 -21.52,27.17 -29.57,13.2 -81,-10.56 -108.67,-20.14l-22.81 -142.19c-151.08,-12.6 -81.7,1.75 -148.4,127.89z"/>
   <path class="fil0" d="M12279.31 2743.09c-12.44,34.82 7.63,27.89 -19.3,67.33 -74.12,9.08 -46.33,-17.96 -60.5,-47.48 -24.1,-6.96 -25.36,2.15 -43.66,7.24 -1.84,17.35 2.77,26.33 2.87,36.54 0.11,11.35 3.14,1.67 -1.67,16.34 -9.03,27.49 -6.07,11.89 -12.23,18.25 -48.19,12.94 -44.79,-8.41 -66.04,-36.31 -12.89,6.64 -21.53,13.55 -30.33,17.03 -4.17,30.72 2.1,18.34 8.81,35.54 12.51,32.07 3.75,22.03 -0.52,52.59 -36.87,2.25 -52.28,11.18 -64.18,-22.11l-22 8.01c-0.88,0.82 -2.13,2.42 -2.99,3.35l-12.9 16.88c19.96,22.45 35.15,18.49 32.83,51.8 -3.37,48.43 -31.98,33.87 -60.83,26.61 -26.16,-6.58 -38.49,17.66 -28.3,34.29 14.48,23.65 50.44,0.31 44.2,46.35 -6.03,44.54 -36.28,28.43 -58.67,33.67 -17.46,4.09 -24.25,35.82 -6.66,44.05 21.97,10.28 64.21,-1.9 48.85,49.23 -9.76,32.48 -27.34,18.26 -57.96,31.79l5.71 41.94c16.53,0.52 22.12,-6.26 48.55,1.04 15.19,4.2 21.24,6.23 20.62,15.31 -0.27,3.9 1.08,4.97 1.07,7.07 -0.17,46.62 2.15,27.12 -42.46,54.15 -0.14,36.35 9.41,31.27 17.86,37.51 20.78,-5.23 8.27,-19.26 69.11,-11.37 11.19,24.82 -4.93,5.45 23.54,23.64 -9.87,41.67 -9.83,40.15 -42.82,47.7 -4,26.35 6.66,45.33 30.46,35.57 13.36,-5.48 11.87,-13.43 25.93,-18.83 17.28,-6.63 -11.38,-4.49 17.82,-3.3 39.05,1.59 5.5,-3.1 26.02,7.88 11.84,25.83 16.24,44.82 -9.58,66 5.03,17.48 10.82,24.05 36.81,25.6 12.82,-14.89 5.3,-20.74 22.85,-31.88 22.7,-14.41 30.51,-5.27 55.47,2.79 5.9,27.02 1.1,34.67 -2.97,66.96 52.35,22.18 40.67,-0.28 60.56,-45.12 70.94,10.3 57.85,14.38 61.21,40.5 4.83,37.56 -3.78,25.14 37.4,27.72 11.82,-21.41 1.85,-28.05 15.57,-65.13 27.44,-5.99 27.31,-3.74 59.47,5.12l14.53 42.43c15.84,-0.92 23.97,-7.01 35.39,-11.48 1.23,-30.8 -20.7,-24.63 3.93,-73.57l53.7 -0.74 22.71 37.96c20.38,-19.74 10.16,6.63 29.25,-21.91 -5.45,-18.95 -36.74,-43.2 -8.15,-71.56 24.11,-23.92 58.16,-7.04 70.56,13.23 15.62,-7.15 20.73,-13.9 28.07,-29.67 -6.19,-11.1 -18.56,-19.01 -28.3,-24.65 -2.11,-35.04 -3.41,-39.54 10.88,-65.5 42.51,-0.28 73.51,41.36 77.44,-22.54 -38.16,-16.97 -29.8,-6.56 -40.71,-23.51 -11.72,-18.22 -8.13,-37.54 9.02,-50.22 31.09,-22.99 64.04,16.14 62.15,-43.21l-58.68 -14.27c-3.83,-48.37 -2.78,-70.84 51.4,-67.66 9.2,-17.1 2.95,-25.56 -1.63,-42.7 -66.2,-6.07 -78.38,20.61 -63.93,-67.92 11.3,-3.3 21.21,-6.17 34.59,-8.5 3.91,-32.44 -5.8,-19.37 -14.09,-42.53 -18.57,5.34 -45.31,31.21 -78.26,0.4 -27.73,-25.94 4.16,-53.82 26.52,-61.82 1.66,-28.27 -4.41,-11.85 -15.04,-35.93 -21.5,-0.86 -13.03,2.14 -37.65,26.84 -26.45,-2.85 -47.81,-2.85 -53.81,-26.52 -6.07,-23.93 1.68,-38.58 17.04,-44.8 0.91,-22.82 -10.54,-29.47 -35.82,-32.2 -29.33,38.73 -21.93,50.53 -78.36,29.08 -6.99,-32.01 13.62,-62.79 -12.07,-73.29 -36.22,-14.8 -35.07,29.35 -45.51,51.45 -36.18,0.89 -54.76,6.18 -60.59,-34.73 -3.29,-23.05 -4.77,-47.11 -41.59,-31.82z"/>
   <path class="fil0" d="M6205.92 1016.73c225.48,27.21 357.37,194.19 341.47,420.12 -26.33,373.83 -533.88,461.19 -706.56,172.9 -8.53,-14.23 -10.77,-18.34 -16.56,-29.45 -141.06,-270.7 76.85,-600.35 381.65,-563.57zm-138.05 -94.27c-10.82,-32.15 -28.86,-47.13 -42.16,-81.42 -14.23,0.39 -51.25,12.55 -63.46,18.89 -6.23,21.87 3.64,60.9 0.7,82 -5.13,36.89 3.52,19.2 -20.82,32.19 -2.35,1.25 -36.16,15 -39.23,16.26 -24.2,-7.47 -65.75,-34.21 -80.27,-50.85 -36.34,10.78 -29.98,32.01 -55.64,40.43 -0.23,25.31 37.23,72.69 35.98,92.88 -15.17,37.49 1.46,1.01 -19.15,29.53 -8.17,11.3 -9.57,13.98 -15.45,24.97l-98.03 -20.9c-37.39,73.2 -31.85,57.05 -21.26,69.47 7.76,9.09 14.39,11.48 22.08,18.37 13.82,12.37 29.97,27.32 40.46,40.25l-19.31 71.54 -94.36 14.22c-7.78,19.97 -10.28,57.55 -4.55,72.8 35.14,13.21 59.52,15.93 90.55,34.1 17.63,73.8 10.35,66.12 -78.18,123.63 4.03,11.34 16.23,46.72 17.86,63.03 2.18,-0.08 5.58,-2.6 6.52,-0.59l46.21 -5.55c24.1,-2.06 33.57,-2.18 62.47,2.02 5.85,43.76 42.98,44.89 9.17,89.17 -13.81,18.09 -45.59,38.53 -42.25,58.93 12.63,26.4 24.31,19.41 35.07,49.87 24.77,-6.65 43.77,-22.82 72.82,-36.3 47.82,-22.19 40.31,6.12 80.5,22.68l-18.31 109.91 59.07 25.55c17.46,-24.01 46.54,-44.93 58.25,-73.89 84.3,15.46 94.83,24.79 97.19,119.91l66.76 4.05c7.15,-19.25 14.02,-37.74 21.74,-60.97 9.72,-29.29 16.74,-39.96 54.43,-39.51 41.58,0.49 74.99,65.95 81.4,83.87 17.94,-10.54 42.64,-17.83 64.99,-13.54 -5.15,-36.88 -19.4,-88.95 7.49,-114.19 26.4,-30.74 -18.24,9.48 40.95,-23.48l94.59 50.99c11.18,-19.82 21.96,-33.82 44.7,-38.45 -6.36,-64.97 -68.2,-63.23 -11.54,-136.87l9.56 -11.72c26.77,1.68 70.79,13.65 105.34,17.27l25.63 -58.99c-12.6,-7.49 -22.43,-17.89 -34.83,-29.03l-38.83 -30.98 18.58 -80.88c28.3,-1.11 94.28,-22.93 102.13,-15.82l1.71 -65.47 -90 -33.15c-10.03,-36.64 -22.6,-60.12 11.3,-88.05 3.58,-2.95 58.7,-36.1 61.39,-37.25 -5.56,-16.12 -16.99,-46.75 -17.94,-62.44 -131.39,15.37 -104.9,3.12 -127.62,-34.73 -25.2,-41.96 13.15,-53.57 48.66,-115.58 -25.09,-11.89 -26.47,-34.12 -48.81,-48.06 -22.12,10.63 -82.58,79.78 -129.85,19.65 -15.94,-20.27 -11.46,7.45 -8.75,-33.87 1.61,-24.61 14.39,-50.93 20.72,-70.74 -7.33,-19.55 -42.15,-35.57 -64.98,-38.53 -18.92,17.25 -42.28,50.25 -56.13,71.84l-74.29 -9.25 -24.47 -110.37 -68.41 -0.52c-0.79,7.02 -20.93,70.95 -24.5,77.23 -5.47,9.61 -0.71,31.69 -83.56,24.46z"/>
   <path class="fil0" d="M7410.38 3194.09c23.03,-3.47 -21.44,-1.97 20.25,-2.77 91.23,-1.74 154.7,101.2 91.44,189.82 -93.93,131.61 -291.38,-20.32 -184.34,-148.14 7.36,-8.79 2.72,-3.52 10.68,-11.13 1.11,-1.07 2.56,-2.34 3.69,-3.36 26.74,-24.08 28.73,-19.98 58.27,-24.43zm283.39 -140.99c-15.04,19.46 -49.03,32.72 -74.7,17.61 -34.37,-20.23 -11.43,-28.61 -3.45,-82.86 -23.16,-5.01 -13.39,-7.27 -38.39,-14.47 -37.44,45.22 -24.49,48 -91.86,35.76l-5.11 -64.51c-24.17,-9.59 -18.47,-6.29 -46.43,-5.27 -15.16,65.36 -14.23,66.55 -70.2,65.82 -11.49,-24.03 -16.21,-15.06 -19.81,-51.78l-51.49 2.69 -1.58 69.57 -33.74 17.05c-15.9,-9.55 -36.27,-26.11 -53.72,-30.38 -16.53,14.38 -14.35,24.64 -34.21,32.09 6.55,5.24 16.77,23.11 19.98,34.33 9.44,32.96 11.5,26.28 -10.71,41.15 -11.24,9.32 -23.26,9.37 -34.52,9.01 -6.15,-0.2 -25.77,-4.27 -33.43,-5.38 -7.87,12.49 -13.38,26.87 -18.96,37.74 15.61,13.22 31.48,27.05 48.44,35.09 -15.64,62.86 -13.73,54.26 -44.05,61.29 -40.64,9.43 -30.59,-8.73 -37.72,40.4l6.6 0.97c8.57,16.99 9.52,3.9 40.49,22.33 2.94,1.75 8.79,9.49 10.18,8.05 4.98,-5.15 32.01,45.57 -46.18,78.12l14.99 36.35c26.05,-0.8 103.7,-9.79 76.97,53.68 -7.49,17.78 -19.2,24.32 -28.21,40.59 19.4,25.05 14.08,-1.87 14.99,32.9l46.79 -21.67c31.74,-10.49 31.61,-3.48 55.01,7.93 6.16,22.27 2.14,47.5 -9.55,74.69l37.04 14.88c30.37,-35.38 35.32,-46.97 63.32,-40.53 8.29,1.91 23.33,9.08 31.87,12.55 1.35,22.03 7.64,41.93 8.31,58.37l39.88 3.81c11.86,-52.71 19.87,-65.92 76.54,-63.06l26.34 51.02c19.94,-10.48 17.43,-0.83 36.81,-10.45l-1.82 -72.12c25.35,-4.21 13.27,0.15 26.6,-16.37 30.39,6.45 48.4,12.69 62.89,31.05 14.26,-6.29 19.07,-13.19 39.52,-22.96 -11.99,-12.49 -23.08,-28.6 -24.64,-45.97 -2.91,-32.33 6.29,-19.15 16.17,-51.08l64.69 17.59c7.57,-12.46 13.12,-13.44 20.37,-37.53 -30.42,-23.49 -53.08,-31.69 -31.57,-85.49 23.75,-13.7 36.17,-13.34 60.98,-18.15l3.6 -39.9c-28.11,-5.87 -66.87,-14.73 -64.54,-50.98 3.54,-54.98 -3.89,-8.23 12.56,-24.67 1.25,-1.25 2.92,-2.21 4.25,-3.34l35 -23.78 -7.82 -35.11 -55.4 -1c-29.54,-4.36 -5.17,-1.81 -35.1,-25.62 8.25,-32.77 16.29,-46.13 35.19,-69.03 -5.22,-10.19 -13.8,-26.36 -27.45,-30.99z"/>
   <path class="fil0" d="M402.45 3303.04l24.42 -165c25.31,-11.82 16.66,-5.47 39.35,-11.21l50.75 -9.38c16.01,33.48 65.82,83.42 74.41,109.94 6.92,21.35 5.64,0.55 5.48,36.44 -59.71,25.27 -99.57,52.98 -194.41,39.21zm-63.71 -211.46c44.13,9.4 37.94,23.41 81.94,38.86l-24.9 171.63c-94.99,-13.79 -130.1,-51.9 -181.85,-93.82 12.43,-42.6 6.36,-25.36 61.95,-66.8 22.77,-16.97 44.66,-29.71 62.87,-49.87zm281.83 148.72l-88.49 -122.36c4.91,-33.1 19.3,-58.17 43.6,-79.62l158.41 23.3c-6.12,42.17 -40,137.87 -81.05,165.29 -37.47,25.03 30.97,0.8 -32.47,13.4zm-467.97 -259.99l178.77 22.15c1.71,33.1 10.65,46.8 8.27,82.45 -24.52,11.72 -42.92,29.09 -65.69,46.11 -66.93,50.02 -41.7,45.2 -82.61,46.99 -5.67,-14.34 -11.38,-25.42 -18.12,-40.82 -21.82,-49.86 -28.29,-104.04 -20.62,-156.88zm175.09 1.3l-171.72 -24.47c15.45,-77.79 50.12,-119.22 99.47,-174.32 36.55,10.93 25.29,4.07 43.2,32.55 12.01,19.1 72.8,91.37 69.5,111.88l-35.68 49.31c-1.25,1.39 -3.05,3.49 -4.75,5.05zm222.78 -48.09c46.71,-22.33 89.05,-79.09 140.74,-87.46 30.76,64.35 52.83,108.07 45.82,195.38l-171.66 -24.91 -14.89 -83.01zm-12.3 -8.6c-31.97,-5.94 -41.69,-7.37 -65.51,-28.27l19.75 -167.09c2.13,-0.3 5.55,-2.38 6.44,-0.16l46.51 10.11c43.65,16.01 100.76,45.76 114.75,88.53 -22.19,29.13 -91.66,63.34 -121.94,96.89zm-252.48 -164.68c53.92,-24.7 112.82,-47.81 194.42,-39.21l-23.95 165.05c-2.13,1.3 -5.14,-0.11 -6.89,2.9l-27.33 10.58c-56.51,22.72 -49.46,1.04 -110,-76.48 -1.74,-2.23 -16.98,-20.97 -17.4,-21.75 -19.13,-35.12 -2.37,5.17 -8.86,-41.09zm407.69 -21.82c-93.6,-55.93 15.48,-88.92 -40.13,-118.86l-35.8 -16.68c-6.75,15.27 -14,21.72 -23.63,32.57 -13.31,15.01 -6.68,12.34 -24.66,28.99 -45.86,-12.55 -62.86,-6.26 -62.62,-94.35l-56.26 -4.33 -26 72.93 -60.95 4.64c-8.91,-18.9 -19.85,-30.03 -19.56,-62.19 -29.65,-0.24 -34.25,0.73 -61.61,13.07l1 77.97c-49.88,53.97 -63.62,0.42 -112.06,-13.79 -14.2,9.84 -27.67,21.43 -37.57,39.27 18.02,37.4 51.2,77.46 -4.05,103.23l-70.26 -13.8 -22.75 51.99 53.79 42.43c-4.12,72.35 -11.14,58.59 -90.27,70.61l0.08 57.35 77.34 23.96 -2.03 60.32c-25.54,3.18 -41.32,13.75 -63.01,31.35 0.54,21.39 3.32,33.16 17.12,52.81 23.38,-7.84 60.43,-7.38 88.17,-3.78 3.07,31.16 26.41,29.54 6.02,66.28 -12.32,22.21 -21.59,13.06 -34.86,44.13 10.68,21.14 16.32,14.59 33.66,42.49 66.73,-38.87 53.06,-46.61 116.87,-6.98l-19.33 77.96c13.49,8.24 28.4,15.63 44.1,21.58 31.6,-43 44.94,-59.93 81.33,-49.81 36.69,10.21 28.56,11.63 34.26,40.84 3.33,17.05 5.58,32.81 7.17,45.92l47.76 4.11c34.46,-85.54 6.72,-77.98 77.83,-79.69 28.97,29.93 26.39,32.06 44.34,65.92 9.38,-8.46 28.97,-13.51 44.01,-13.88 3,-22.37 0.27,-22.08 0.43,-40.48 0.82,-98.62 93.95,-60.75 107.63,-25.9l41.06 -33.34c-40.78,-53.16 -36.83,-112.08 40.49,-102.97 11.42,1.35 27.27,4.96 39.6,6.74 3.26,-15.07 10.58,-27.85 19,-37.73 -8.74,-6.65 -9.01,-9.91 -16.11,-16.42 -43.26,-39.62 -39.23,-20.4 -27.99,-97.83 25,-2.92 53.46,-11.18 77.84,-9.01l5.35 -53.12c-111.65,-29.3 -61.3,-31.99 -80.09,-52.11 3.76,-21.46 0.39,-9.08 7.37,-23.84l57.09 -47.69c-3.7,-13.26 -9.12,-32.94 -14.19,-42.55 -16.23,-3.03 -68.93,9.26 -73.77,-2.87 -1,-2.5 -4.4,-1.06 -6.43,-2.03 -47.61,-50.54 -0.66,-67.24 17.72,-112.38l-37.75 -36.93c-13.19,17.89 -14.18,19.07 -46.77,30.54 -11.66,4.11 0.67,-0.08 -17.91,5.33z"/>
   <path class="fil0" d="M1253.53 3150.14c-4.16,-99.08 40.04,-173.37 100.32,-236.3 21.49,-22.43 16.12,-20.39 44.37,-35.74 21.02,-11.41 25.73,-15.71 52.44,-26.82 35.44,-14.74 81.91,-25.7 126,-24.11 362.95,13.12 383.25,432.24 217.01,564.3 -32.05,25.46 -55.06,49.07 -98.9,60.09 -46.3,11.65 -71.54,21.6 -125.17,21.48 -160.54,-0.38 -289.14,-114.2 -312.6,-256.28 -4.34,-26.28 -2.37,-40.42 -3.47,-66.63zm718.1 158.98c-11.91,-16.78 -14.77,-6.62 -5.97,-41.35 14.08,-55.56 63.4,-39.89 95.01,-54.41l6.71 -46.26 -83.21 -35.3c-14.48,-105.36 24.89,-61.5 65.43,-108.88 -12.46,-18.35 -6.9,-43.97 -21.45,-50.34 -21.59,9.25 -58.03,7.87 -86.62,2.85 -3.62,-14.21 -54.35,-51.09 23.89,-119.81 -24.45,-24.61 -15.62,-24.41 -34.76,-47.55 -16.04,2.87 -7.41,1.79 -19.44,9.06 -71.36,43.12 -46.2,32.66 -104.04,2l15.05 -94.76 -51.62 -21.49c-5.92,12.56 -28.05,38.4 -37.57,46.5 -20.3,17.28 4.58,16.69 -37.69,10.88 -17,-2.34 -10.98,-7.46 -34.59,-9.57l-5.31 -12.45c-0.78,-2.04 -3.46,-9.11 -4.18,-11.28 -1.74,-5.28 -3.07,-10.1 -4.95,-19.59 -1.36,-6.87 -3.3,-27.02 -5.13,-42.09l-53.07 -6.04c-44.73,54.28 7.64,93.55 -100.16,86.6 -6.12,-19.41 -26.32,-59.93 -44.07,-68.21 -11.34,8.22 -27.2,9.81 -43.17,15.13 -3.45,28.44 0.59,56.99 -3.89,74.42 -9.54,37.15 -19.21,21.58 -39.29,40.64 -47.14,-11.57 -50.73,-29.74 -81.02,-45.47 -13.38,15.77 -69.62,33.57 -7.82,100.07 -25.07,75.43 -51.01,53.4 -118,40.24l-28.71 52.86c20.17,16.7 45.09,35.63 63.33,52.32 -12.61,88.05 -32.08,57.71 -99.04,77.76l-1.73 60.23c100.3,16.07 90.09,30.12 82.34,92.83 -86.42,24.14 -62.5,56.79 -53.76,91.89 26.01,0.24 53.29,-9.92 76.18,-5.62 37.47,7.03 17.49,16.36 44.65,44.9 -25.5,92.36 -90.07,42.29 -16.85,126.98 1.85,-1.23 7.41,-4.72 8.97,-5.66l8.85 -5.22c79.51,-45.12 67.56,-20.68 111.64,1.38 -5.71,35.58 -13.9,49.3 -20.02,91.46 21.97,4.75 29.15,15.45 50.94,20.91 51.72,-72.07 62.15,-61.3 117.18,-44.07 4.03,19.95 5.73,23.8 9.18,46.39 2.23,14.59 4.6,27.61 9.33,38.51l53.6 2.24c4.56,-28.6 23.11,-53.6 28.23,-81.03 30.69,-1.8 34.46,-4.79 64.7,-2 9.39,19.64 32.11,46.51 37.29,68.5 16.56,-5.1 33.65,-12.68 54.11,-14.96l-3.46 -94.72c25.15,-4.83 21.43,-5.99 36.36,-21.69 61.43,9.93 55.99,31.46 94.09,45.01 11.52,-18.07 23.71,-26.97 36.76,-39.54 -13.34,-12.26 -59.65,-70.47 -4.18,-113.24l10.86 -7.13c36.28,9.39 43.46,14.75 78.28,18.11 5.11,-23.65 15.01,-22.58 21.25,-50.89 -9.79,-7.78 -44.72,-33.39 -49.45,-40.06z"/>
   <path class="fil0" d="M10888.16 2181.69c183.99,-28.42 223.18,259.34 31.03,282.66 -146.06,17.73 -204.47,-152.36 -119.64,-242.9 25.7,-27.43 41.09,-32.42 88.61,-39.76zm-292.85 112.55c-12.68,86.91 32.73,177.57 66.51,221.71 7.67,10.02 10.45,12.83 18.19,20.54l68.21 49.52c224.11,145.09 543.48,-90.51 444.15,-361.94 -6.55,-17.9 -14.46,-34.8 -23.83,-51.78l-27.59 -44.52c-32.01,-51.98 -126.18,-114.8 -214.98,-116.63 -111.52,-2.3 -148.44,25.5 -219.35,76.87 -56.26,40.76 -97.68,112.77 -111.32,206.23z"/>
   <path class="fil0" d="M6370.82 2180.17c64.87,-3.66 103.29,31.47 101.51,88.2 -1.94,61.84 -37.23,97.85 -87.69,99.4 -128.49,3.95 -132.34,-180.91 -13.82,-187.6zm-63.45 -187.98l-30.36 10.16c3.67,27.32 3.7,40.78 -5.1,62.26 -66.26,4.25 -55.87,-35.19 -91.52,0.24 55.7,93.89 -47.97,63.68 -51.6,63.68l-18.79 28.48c12.32,12.93 22.42,19.05 36.89,31.09l-7.94 32.65 -50.25 11.71 -2.75 35.2c31.45,21.25 45.62,-5.36 57.07,41.33 -13.74,18.27 -24,14.23 -34.06,25.15 -13.74,14.9 -3.24,22.29 -2.85,43.62 20.44,-2.9 44.03,-6.47 61.7,2.21 18.66,59.98 -9.14,45.69 -18.38,76.31l13.3 21.18c40.8,-14.57 96.94,-62.65 73.37,47.24 22.98,6.73 9.53,2.12 15.94,9.09 20.62,-1.91 28.12,-19.22 38.8,-34.83l44.53 8.79c2.31,18.75 8.56,34.63 7.2,52.65l29.45 4.26c10.75,-19.33 11.39,-48.3 39.59,-51.52 29.17,-3.34 34.54,18.18 40.24,37.63l27.98 -4.25c4.45,-35.13 -7.11,-37.22 8.85,-63.5 24.46,-4.67 42.18,-8.54 58.8,12.73 18.1,1.85 21.03,-3.75 30.44,-15.85 -11.03,-13.6 -23.43,-32.98 -11.21,-55.67 16.99,-31.56 -4.64,-13.36 26.37,-15.24 12.48,-0.76 27.98,6.94 32.9,10.49 9.83,-13.75 6.54,-17.12 17.16,-25.11 -28.21,-24.69 -40.83,-26.13 -24.9,-77.15l45.83 -7.56 2.93 -32.64 -46.94 -15.02c-2.5,-46.69 2.17,-51.74 37.57,-60.47 -1.35,-7.79 -8.61,-30.9 -8.92,-31.69 -75.02,10.57 -83.39,-33.68 -43.15,-70.26 -3.75,-12.06 -8.6,-16.45 -16.62,-28.99 -15.8,13.85 -34.85,27.5 -54.46,18.42 -25.85,-11.97 -16.43,-9.58 -17.49,-27.89 -0.82,-14 5.58,-27.85 8.75,-40.54 -34.32,-9.75 -0.92,-3.39 -25.84,-10.52 -36.93,32.32 -2.99,40.02 -75,29.57 -3.52,-16.42 -7.75,-31.41 -5.99,-51.88l-33.1 -4.57c-5.36,31.44 -8.95,49.35 -34.2,50.57 -39.86,1.92 -15.96,3.85 -44.27,-41.53z"/>
   <path class="fil0" d="M7523.55 1949.64c34.48,-5.57 112.49,-4.37 125.55,79.63 4.97,31.97 -4.88,63.02 -23.51,87.66 -76.44,101.05 -250.14,-18.42 -161.08,-134.65 16.68,-21.77 28.31,-27.67 59.04,-32.64zm-198.28 99.3c-10.57,120.6 98.92,216.46 216.1,219.31 104.67,2.54 216.06,-79.41 223.37,-215.2 1.6,-29.65 -7.92,-61.64 -16.94,-83.98l-16.38 -39.84c-35.63,-80.21 -160.41,-131.63 -268.82,-84.35 -90.28,39.38 -128.12,98.97 -137.33,204.05z"/>
   <path class="fil0" d="M12330.03 2279.13c2.39,-0.16 4.05,-0.45 6.71,-0.53 6.85,-0.21 13.52,0.3 20.34,0.97 82.8,8.15 141.44,54.83 150.16,144.93 6.63,68.5 -38.03,144.36 -87.9,168.84 -17.48,8.58 -32.4,11.23 -54.58,13.34 -227.57,21.6 -244.05,-267.99 -73.48,-321.73 16.38,-5.16 4.5,-0.99 25.37,-3.83l13.37 -1.98zm-50.04 -70.83l-25.02 8.67c7.54,75.32 -30.59,53.25 -62.48,36.77 -5.84,8.42 -10.65,11.27 -16.05,17.44l12.25 27.01c0.62,29.18 0.1,11.01 -3.9,16.53 -11.1,15.3 10.79,16.18 -56.06,6.48 -10.26,38.47 -11.39,13.11 2.56,32.49 19.72,27.38 24.77,11.99 7.88,48.56 -1.13,2.44 -31.54,5.74 -38.04,19.77 -8.78,18.95 28.19,24.86 42.4,29.5 -6.9,47.16 -4.19,37.1 -35.03,55.53 7.56,9.55 5.47,-1.9 3.75,20.84 33.96,4.1 25.73,-10.57 57.74,8.38 2.43,24.36 5.21,41.85 -19.21,51.12 10.19,57.98 88.43,-51.78 71.57,64.36 31.79,18.93 21.34,3.29 31.38,-3.7 26.93,-18.75 -19.46,-10.92 38.49,-13.13 11.98,20.52 22.04,19.53 19.74,50.06 41.86,6.07 19.2,-20.49 44.05,-36.54 33.08,-21.36 33.01,14.35 51.24,30.14 4.79,-4.32 15.23,-8.66 21.8,-10.39 -0.53,-2.29 -0.72,-7.8 -1.08,-6.96 -0.35,0.83 -0.85,-4.9 -0.78,-6.92 0.04,-1.07 -6.28,-10.18 9.52,-38.89 51.31,-8.13 25.39,21.29 68.81,9.95 -1.71,-33.05 -20,-23.75 -7.36,-61.72 23.54,-5.14 25.02,-3.11 53.79,1.06l8.52 -12.28c-12.31,-45.54 -33.45,6.38 -23.44,-70.79 13.34,-3.69 24.02,-6.94 43.62,-7.19l2.31 -26.7 -41.68 -11.28c0.21,-37 -1.87,-50.14 31.67,-50.79 -1.93,-33.03 -2.39,6.39 -4.52,-27.66 -21.17,3.72 -35.39,7.77 -48.79,-10.26 -1.71,-2.31 -23.22,-4.01 4.38,-43.55 0.94,-1.34 4.17,-4.26 5.87,-5.69 -3.22,-13.45 -3.86,-12.97 -16.93,-22.72 1.03,4.25 21.66,-3.66 -6.27,10.16 -10.68,5.29 -17.2,6.99 -29.63,3.43 -27.26,-7.8 -35.21,-20.73 -13.11,-47.64 -1.83,-17.04 -8.4,-13.38 -24.52,-17.08 -13.5,30.7 -29.39,25.09 -31.85,25.48 -16.47,2.65 -5.15,2.3 -25.74,-0.13l-10.38 -52.07c-48.98,6.77 -19.77,19.19 -42.57,39.02 -1.28,1.11 -2.76,2.51 -4.21,3.31 -31.11,17.11 -34.2,-9.69 -44.69,-32.01z"/>
   <path class="fil0" d="M12886.05 2957.1l8.63 -59.5c-56.41,-9.38 -105.29,-50.55 -126.4,-88.58 -21.91,-39.48 -43.48,-97.04 -32.28,-156.58 21.53,-114.42 114.78,-203.9 221.91,-190.61l16.54 -113.99c-32.1,13.22 6.42,59.02 -75.83,58.12 -5.48,-15.75 -18.99,-35.17 -19.74,-50.06 -13.66,2.64 -20.12,7.54 -34.97,8.44 -6.11,39.7 9.39,36.38 -10.53,72.61 -41.17,18.86 -33.23,2.46 -76.71,-17.88 -28.29,10.16 -1.28,12.48 -30.87,15.78 13.88,48.56 62.88,95.95 -58.68,79.14 -13.18,39.16 -19.82,25.65 24.39,64.26l-6.86 46.17 -56.5 18.74c-13.2,73.34 19.27,20.33 48.32,59.89 25.14,34.22 -30.31,61.03 -42.6,75.83 6.57,9.12 8.87,16.08 10.93,28.59 34.05,1.47 36.72,-9.21 72.61,10.54 30.21,74.57 -69.25,46.21 -1.38,102.64 31.44,-14.79 83.24,-45.87 85.09,16.07 0.37,12.55 -5.95,31.31 -7.21,47.44 19.72,2.98 17.76,-1.2 26.03,10.55 14.15,-15.06 23.77,-19.03 33.12,-42.39l32.98 4.79z"/>
   <path class="fil0" d="M6489.37 2833.51c155.47,-15.89 306.44,95.47 314.04,281.25 7.83,191.34 -115.89,302.44 -277.39,315.3 -373.38,29.72 -461.48,-553.13 -36.65,-596.55zm-0.02 -71.87c-0.66,0.23 -33.74,-1.38 -36.21,-1.8 -27.03,-4.59 -18.04,0.67 -33.71,-14.07 -12.47,-11.73 -15.94,-33.12 -26.05,-51.41 -10.67,9.61 -33.92,15.16 -47.67,19.94 2.91,20.54 8.06,25.25 -0.93,53.29 -9.09,28.36 -17.26,25.15 -31.82,49.17 -37.35,-10.47 -63.14,-24.23 -82.41,-47.71 -12.7,36.09 -15.17,13.4 -33.03,39.94 23.87,33.54 47.94,91.51 -14.52,101.49 -28.35,4.53 -41.09,-2.51 -70.39,-6.56l-15.96 47.25c15.64,14.52 34.67,27.84 57.02,39.37 -24.84,94.28 -14.25,54.07 -93.13,82.29l-7.4 54.9 86.42 20.91c-7.41,58.09 -15.23,73.78 -69.8,85.98l15.76 58.84c21.7,4.43 38.03,-7.77 62.55,-3.52 64.14,11.1 2.55,-0.61 46.17,37.02 -21.37,74.17 -75.51,72.46 -8.09,117.64 11.13,-16.46 53.5,-39.19 83.85,-22.96 32.68,17.5 25.13,10.8 12.64,96.9l32.52 22.6c14.95,-3.67 12.57,-3.72 24.58,-16.73 13.12,-14.2 19.87,-26.78 28.12,-38.19l69.62 12.82c5.52,26.89 1.36,54.31 16.42,71.17l-1.25 8.76c53.42,7.75 38.45,18.77 56.23,-33.03 18.87,-54.99 32.51,-43.34 52.68,-41.11 54.96,6.08 23.95,5.93 37.22,19.33 3.31,3.34 24.77,42.46 25.3,43.93 12.33,-7.67 21.94,-11.19 39.81,-12.14 5.94,-47.35 -7.88,-58.66 11.76,-96.57 10.52,-2.54 16.59,-6.52 30.26,-7.23 40.02,-2.08 52.5,24.31 81.99,34.14 9.28,-13.81 4.07,-8.5 13.42,-16.77 16.39,-14.51 7.66,-11.59 16.95,-7.41 -7.41,-28.46 -43.77,-62.43 -22.32,-92.53 41.28,-38.67 43.08,-20.56 100.1,-12.28 1.21,-2.31 11.43,-23.27 11.53,-23.44 11.81,-20.43 3.37,-9.71 12.34,-17.83 -20.17,-8.64 -40.95,-30.78 -56.19,-43.95l10.15 -69.94c26.79,-5.69 56.42,-9.42 83.37,-14.71l-3.1 -45.24c-47.65,-27.53 -60.58,3.08 -72.51,-55.15 -0.27,-0.93 -29.52,-9.77 17,-49.15 13.91,-11.77 30.56,-15.27 46.72,-22.04l-13.13 -43.42c-18.17,-1.47 -38.07,2.45 -55.89,1.44 -3.13,-0.18 -15,-1.13 -22.24,-3.7 -54.25,-19.27 -21.27,-86.29 6.77,-109.58l-27.78 -44.27c-27.94,17.49 -53.93,47.82 -91.37,26.04 -42.61,-24.78 -14.05,-49.27 -6.92,-98.43 -12.47,-11.02 -20.61,-12.4 -32.52,-22.59 -14.95,3.45 -20.46,7.91 -32.12,18.87 -41.04,38.58 2.5,29.05 -46.42,31.52 -62.65,3.17 -52.04,-49.17 -58.44,-91.95l-44.51 -1.84 -31.41 83.73z"/>
   <path class="fil0" d="M6498.53 3034.76c126.66,-19.56 153.63,178.52 21.36,194.58 -100.54,12.21 -140.75,-104.88 -82.36,-167.21 17.69,-18.88 28.28,-22.31 61,-27.37zm-201.59 77.48c-8.72,59.82 22.53,122.24 45.79,152.62 5.28,6.9 7.19,8.83 12.52,14.14l46.95 34.09c154.27,99.88 374.12,-62.31 305.74,-249.15 -4.51,-12.32 -9.95,-23.95 -16.4,-35.64l-18.99 -30.65c-22.04,-35.78 -86.86,-79.02 -147.98,-80.28 -76.77,-1.58 -102.18,17.55 -151,52.91 -38.73,28.06 -67.24,77.63 -76.63,141.96z"/>
   <path class="fil0" d="M6159.14 1303.45c126.65,-19.56 153.63,178.52 21.36,194.58 -100.54,12.21 -140.75,-104.88 -82.36,-167.21 17.69,-18.88 28.29,-22.31 61,-27.37zm-201.59 77.48c-8.73,59.82 22.53,122.24 45.79,152.62 5.28,6.9 7.19,8.83 12.52,14.14l46.95 34.09c154.27,99.88 374.12,-62.31 305.74,-249.15 -4.51,-12.32 -9.95,-23.95 -16.4,-35.64l-18.99 -30.65c-22.04,-35.78 -86.86,-79.02 -147.99,-80.28 -76.77,-1.58 -102.18,17.55 -151,52.92 -38.73,28.06 -67.24,77.62 -76.63,141.96z"/>
   <path class="fil0" d="M4327.02 3170.43c2.87,-0.19 4.87,-0.54 8.07,-0.64 8.24,-0.25 16.26,0.36 24.46,1.17 99.56,9.8 170.07,65.93 180.56,174.26 7.97,82.37 -45.73,173.59 -105.69,203.01 -21.02,10.32 -38.96,13.51 -65.62,16.04 -273.64,25.97 -293.46,-322.24 -88.36,-386.86 19.69,-6.21 5.41,-1.19 30.5,-4.6l16.08 -2.39zm-60.16 -85.16l-30.09 10.42c9.06,90.57 -36.78,64.03 -75.13,44.22 -7.02,10.12 -12.81,13.55 -19.3,20.97l14.73 32.48c0.75,35.09 0.12,13.24 -4.69,19.87 -13.35,18.4 12.97,19.45 -67.41,7.79 -12.34,46.26 -13.7,15.76 3.08,39.06 23.72,32.93 29.78,14.42 9.47,58.39 -1.36,2.94 -37.92,6.9 -45.74,23.78 -10.55,22.79 33.89,29.9 50.99,35.47 -8.29,56.7 -5.03,44.61 -42.12,66.77 9.08,11.49 6.57,-2.29 4.51,25.06 40.84,4.93 30.94,-12.71 69.42,10.08 2.93,29.29 6.27,50.32 -23.1,61.47 12.25,69.72 106.33,-62.27 86.06,77.39 38.23,22.76 25.66,3.95 37.73,-4.46 32.38,-22.55 -23.4,-13.13 46.28,-15.79 14.4,24.68 26.5,23.48 23.73,60.2 50.33,7.31 23.09,-24.64 52.97,-43.94 39.77,-25.69 39.69,17.26 61.61,36.24 5.76,-5.2 18.31,-10.41 26.22,-12.49 -0.64,-2.75 -0.88,-9.38 -1.3,-8.37 -0.43,1 -1.02,-5.89 -0.94,-8.32 0.04,-1.29 -7.56,-12.24 11.45,-46.76 61.71,-9.78 30.53,25.6 82.74,11.97 -2.06,-39.74 -24.05,-28.57 -8.85,-74.21 28.3,-6.18 30.09,-3.74 64.68,1.28l10.25 -14.77c-14.8,-54.75 -40.22,7.67 -28.18,-85.12 16.04,-4.43 28.88,-8.34 52.45,-8.65l2.78 -32.1 -50.12 -13.57c0.25,-44.49 -2.25,-60.29 38.08,-61.07 -2.32,-39.72 -2.87,7.69 -5.44,-33.26 -25.46,4.48 -42.55,9.34 -58.66,-12.34 -2.06,-2.77 -27.92,-4.82 5.27,-52.36 1.12,-1.61 5.02,-5.12 7.06,-6.84 -3.87,-16.18 -4.64,-15.59 -20.36,-27.32 1.24,5.11 26.05,-4.41 -7.53,12.22 -12.84,6.36 -20.69,8.4 -35.63,4.13 -32.77,-9.38 -42.33,-24.92 -15.76,-57.29 -2.2,-20.49 -10.1,-16.09 -29.49,-20.53 -16.23,36.91 -35.34,30.17 -38.29,30.64 -19.8,3.19 -6.19,2.77 -30.95,-0.15l-12.49 -62.61c-58.9,8.15 -23.78,23.07 -51.19,46.92 -1.54,1.34 -3.31,3.02 -5.06,3.98 -37.4,20.57 -41.12,-11.65 -53.74,-38.49z"/>
  </g>
 </g>
</svg>
