<?xml version="1.0" encoding="utf-8"?>
<svg version="1.1" id="Layer_1" xmlns="http://www.w3.org/2000/svg" xmlns:xlink="http://www.w3.org/1999/xlink" x="0px" y="0px"
	 viewBox="0 0 405.9 464" style="enable-background:new 0 0 405.9 464;" xml:space="preserve">
<g>
	<path d="M327.5,194.8c0-68.8-56-124.7-124.7-124.7S78.1,126,78.1,194.8c0,68.7,55.9,124.7,124.7,124.7
		S327.5,263.5,327.5,194.8z M202.8,303.4c-59.9,0-108.7-48.7-108.7-108.7S142.9,86.1,202.8,86.1s108.7,48.7,108.7,108.7
		S262.7,303.4,202.8,303.4z"/>
	<path d="M355.6,323.8c4.5-2.3,8.5-5.3,11.6-9.5c8.1-11.1,6.2-25.6,4.4-39.7c-1.2-9.1-2.4-18.6-0.3-25
		c1.9-6,8.3-12.7,14.4-19.1c9.5-10,20.2-21.3,20.2-35.6s-10.6-25.8-20.1-35.8c-6.1-6.5-12.5-13.1-14.4-19.1
		c-2.1-6.4-0.9-15.9,0.3-25c1.8-14.1,3.6-28.6-4.4-39.7c-8.1-11.2-22.6-13.9-36.6-16.6c-9-1.7-18.3-3.4-23.6-7.3
		c-5.3-3.8-9.7-12-14-20c-6.5-12-14-25.6-27.3-30c-12.8-4.2-25.9,2-38.6,8c-8.5,4-17.2,8.1-24.2,8.1s-15.7-4.1-24.2-8.1
		c-12.7-6-25.8-12.2-38.6-8c-13.4,4.3-20.4,17.4-27.3,30c-4.3,7.9-8.8,16.2-14,20c-5.4,3.9-14.6,5.7-23.6,7.3
		c-14,2.6-28.5,5.4-36.6,16.6c-8.1,11.1-6.2,25.6-4.4,39.7c1.2,9.1,2.4,18.6,0.3,25c-1.9,6-8.3,12.7-14.4,19.1
		C10.7,169.1,0,180.4,0,194.7s10.8,25.6,20.2,35.6c6.1,6.5,12.5,13.1,14.4,19.1c2.1,6.4,0.9,15.9-0.3,25
		c-1.8,14.1-3.6,28.6,4.4,39.7c3.1,4.2,7.1,7.3,11.6,9.5L6.7,399.1c-1.6,2.8-1.4,6.3,0.6,8.9s5.3,3.7,8.4,2.9l64.4-17.3L97.4,458
		c0.8,3.1,3.5,5.4,6.7,5.9c0.4,0,0.7,0.1,1,0.1c2.8,0,5.5-1.5,6.9-4l40.9-70.9c8.7-1,17.5-5.1,26-9.1s17.2-8.1,24.2-8.1
		c7,0,15.7,4.1,24.2,8.1s17.3,8.2,26,9.1l40.9,70.9c1.4,2.5,4.1,4,6.9,4c0.3,0,0.7,0,1-0.1c3.2-0.4,5.8-2.7,6.7-5.9l17.3-64.4
		l64.4,17.3c3.1,0.8,6.4-0.3,8.4-2.9s2.2-6.1,0.6-8.9L355.6,323.8z M107.5,435.4l-14.3-53.5c-1.1-4.3-5.5-6.8-9.8-5.7l-53.5,14.3
		l35.6-61.7c3.1,0.7,6.3,1.3,9.5,1.9c9,1.7,18.3,3.4,23.6,7.3c5.3,3.8,9.7,12,14,20c5.8,10.7,12.3,22.6,23.1,28.2L107.5,435.4z
		 M202.8,356c-10.6,0-21,4.9-31,9.6c-9.9,4.7-20.1,9.5-26.8,7.3c-7.3-2.4-12.8-12.6-18.2-22.4c-5.2-9.5-10.5-19.3-18.7-25.3
		c-8.3-6-19.4-8.1-30.1-10.1c-10.9-2.1-22.2-4.2-26.7-10.2c-4.3-5.9-2.9-17.3-1.5-28.2s2.8-22.1-0.4-32c-3.1-9.4-10.7-17.5-18-25.2
		c-7.8-8.2-15.9-16.7-15.9-24.6s8.1-16.4,15.9-24.6c7.4-7.8,15-15.8,18-25.2c3.2-9.9,1.8-21.1,0.4-32c-1.4-11-2.8-22.3,1.5-28.2
		C55.7,78.8,67,76.7,78,74.7c10.7-2,21.8-4.1,30.1-10.1c8.2-5.9,13.5-15.8,18.7-25.3c5.4-9.9,10.9-20,18.2-22.4
		c6.8-2.2,17,2.6,26.8,7.3c10,4.7,20.4,9.6,31,9.6c10.6,0,21-4.9,31-9.6c9.9-4.7,20.1-9.5,26.8-7.3c7.3,2.4,12.8,12.6,18.2,22.4
		c5.2,9.5,10.5,19.3,18.7,25.3c8.3,6,19.4,8.1,30.1,10.1c10.9,2.1,22.2,4.2,26.7,10.2c4.3,5.9,2.9,17.3,1.5,28.2s-2.8,22.1,0.4,32
		c3.1,9.4,10.7,17.5,18,25.2c7.8,8.2,15.9,16.7,15.9,24.6s-8.1,16.4-15.9,24.6c-7.4,7.8-15,15.8-18,25.2c-3.2,9.9-1.8,21.1-0.4,32
		c1.4,11,2.8,22.3-1.5,28.2c-4.4,6.1-15.7,8.2-26.7,10.2c-10.7,2-21.8,4.1-30.1,10.1c-8.2,5.9-13.5,15.8-18.7,25.3
		c-5.4,9.9-10.9,20-18.2,22.4c-6.8,2.2-17-2.6-26.8-7.3C223.8,360.9,213.4,356,202.8,356L202.8,356z M322.2,376.2
		c-4.3-1.1-8.7,1.4-9.8,5.7l-14.3,53.5l-28.3-49c10.7-5.5,17-17,23.1-28.2c4.3-7.9,8.8-16.2,14-20c5.4-3.9,14.6-5.7,23.6-7.3
		c3.2-0.6,6.4-1.2,9.5-1.9l35.6,61.7L322.2,376.2z"/>
	<path d="M277.8,145.8c-3.1-3.1-8.2-3.1-11.3,0l-81,81l-46.3-46.3c-3.1-3.1-8.2-3.1-11.3,0
		s-3.1,8.2,0,11.3l52,52c1.5,1.5,3.5,2.3,5.7,2.3s4.2-0.8,5.7-2.3l86.5-86.7C280.9,154,280.9,148.9,277.8,145.8L277.8,145.8z"/>
</g>
</svg>
